<svg width="355" height="157" viewBox="0 0 355 157" fill="none" xmlns="http://www.w3.org/2000/svg">
<g clip-path="url(#clip0_2_147)">
<path d="M90.73 73.11C83.02 90.11 117.44 86.4 119.33 99.5C117.56 84.5 88.24 88.23 90.73 73.11ZM115.39 66.35C112.911 63.7927 110.111 61.5675 107.06 59.73C110.63 62.73 112.06 65.73 112.06 68.83C113.18 69.21 114.3 69.63 115.45 70.05C116 70.26 116.15 69.7 116.13 69.36C116.13 68.26 116.13 67.1 115.39 66.36V66.35ZM65.69 134.35C69.69 142.63 78.69 146.35 80.69 146.48C70.37 138.84 58.9 114.82 70.07 78.98C60.31 98.23 61.1 124.85 65.69 134.42V134.35ZM101.86 46.92C102.882 44.3712 104.277 41.9885 106 39.85C101.58 40.8031 97.6176 43.2375 94.77 46.75C81.19 25.18 32.3 33.41 32.3 66.94C33.03 64.48 37.12 58.54 42.19 59.43C42.13 77.35 18.85 76.73 16.05 73.51C23.9 82.51 30.58 82.15 35.91 79.57C29.47 90.47 18.05 93.65 7.99999 87.73C9.19874 91.6358 11.37 95.1731 14.31 98.01C21.79 105.08 31.2 103.23 36.79 94.6C53.1 69.47 61.31 62.35 72.26 62.02C40.17 71.62 48.76 142.02 2.56999 105.17C0.817628 95.6643 -0.0427781 86.0157 -6.5919e-06 76.35V35.94C-0.00235191 35.1189 0.15818 34.3054 0.472298 33.5467C0.786416 32.788 1.24788 32.0992 1.82999 31.52C2.3999 30.9386 3.07975 30.4763 3.82999 30.16L75.82 0.350006L147.82 30.16C148.572 30.4729 149.253 30.9356 149.82 31.52C150.402 32.0992 150.864 32.788 151.178 33.5467C151.492 34.3054 151.652 35.1189 151.65 35.94V76.35C151.65 98.41 147.65 117.74 139.65 134.73C136.008 142.546 131.496 149.925 126.2 156.73C115.13 156.73 62.45 117.23 87.62 90.24C92.18 99.97 106 93.49 116.83 104.9C122.35 112.56 130.26 109.68 134.95 104.71C138.72 100.71 139.15 94.41 133.5 89.3C127.36 84.3 124.15 79.3 120.67 71.58C123.58 64.98 115.67 59.75 109.88 55.91C108.6 53.04 108.88 51.78 109.44 50.08C110.577 47.1714 112.141 44.4482 114.08 42C109.134 43.078 104.693 45.7862 101.47 49.69C101.38 48.7717 101.513 47.8452 101.86 46.99V46.92Z" fill="#54318E"/>
<path d="M185.068 79.37H206.194V77.354H187.252V65.552H204.094V63.536H187.252V51.986H205.984V49.97H185.068V79.37ZM213.205 79.37H215.389V68.408H223.327C229.501 68.408 234.793 65.258 234.793 59.042V58.958C234.793 53.288 230.341 49.97 223.873 49.97H213.205V79.37ZM215.389 66.392V51.986H223.705C228.955 51.986 232.609 54.422 232.609 59.084V59.168C232.609 63.578 228.913 66.392 223.453 66.392H215.389Z" fill="#54318E"/>
<path d="M250.877 79.79C257.219 79.79 261.671 76.514 261.671 70.676V70.592C261.671 65.468 258.311 63.368 252.347 61.772C247.265 60.428 246.005 59.882 246.005 57.908V57.824C246.005 56.354 247.265 55.262 249.785 55.262C252.305 55.262 254.783 56.354 257.429 58.16L260.789 53.288C257.765 50.894 254.195 49.55 249.869 49.55C243.821 49.55 239.579 53.078 239.579 58.412V58.496C239.579 64.292 243.359 66.014 249.323 67.484C254.237 68.702 255.245 69.584 255.245 71.222V71.306C255.245 73.028 253.691 74.078 251.003 74.078C247.643 74.078 244.913 72.692 242.225 70.508L238.403 75.086C241.931 78.278 246.383 79.79 250.877 79.79ZM281.565 79.874C290.637 79.874 297.231 73.028 297.231 64.67V64.586C297.231 56.228 290.721 49.466 281.649 49.466C272.577 49.466 265.983 56.312 265.983 64.67V64.754C265.983 73.112 272.493 79.874 281.565 79.874ZM281.649 73.91C276.441 73.91 272.745 69.71 272.745 64.67V64.586C272.745 59.546 276.357 55.43 281.565 55.43C286.773 55.43 290.469 59.63 290.469 64.67V64.754C290.469 69.794 286.857 73.91 281.649 73.91ZM302.968 79.37H309.436V67.988H323.464V62.108H309.436V55.85H325.354V49.97H302.968V79.37ZM337.377 79.37H343.845V55.934H352.791V49.97H328.431V55.934H337.377V79.37Z" fill="#003E7B"/>
<path d="M188.052 96.4982C189.016 96.4982 189.908 96.884 190.439 97.2215C190.68 97.3662 190.945 97.5109 191.234 97.5109C191.692 97.5109 192.03 97.101 192.03 96.6911C192.03 96.3054 191.765 96.016 191.451 95.8232C190.463 95.2204 189.45 94.8105 188.052 94.8105C185.592 94.8105 183.278 96.8358 183.278 99.4156C183.278 102.188 185.906 103.225 187.449 103.779C188.871 104.286 190.535 104.961 190.535 106.841C190.535 108.529 189.112 109.807 187.473 109.807C186.533 109.807 185.761 109.469 185.158 109.156C184.749 108.939 184.507 108.746 184.146 108.746C183.639 108.746 183.278 109.132 183.278 109.638C183.278 110.072 183.615 110.386 184.17 110.675C185.11 111.157 186.075 111.495 187.473 111.495C190.27 111.495 192.391 109.325 192.391 106.841C192.391 103.755 190.077 102.912 188.461 102.285C187.015 101.73 185.134 101.151 185.134 99.4156C185.134 97.8002 186.46 96.4982 188.052 96.4982ZM194.388 101.007H196.027V108.384C196.027 110.241 197.353 111.543 199.137 111.543C200.078 111.543 201.018 111.229 201.018 110.554C201.018 110.096 200.777 109.759 200.295 109.759C199.957 109.759 199.547 109.952 199.234 109.952C198.486 109.952 197.859 109.325 197.859 108.384V101.007H200.15C200.632 101.007 200.946 100.717 200.946 100.211C200.946 99.729 200.632 99.4156 200.15 99.4156H197.859V96.9563C197.859 96.5465 197.546 96.2813 197.112 96.2813C196.702 96.2813 196.365 96.5706 196.316 96.9322L196.027 99.4397H196.003L194.388 99.6084C194.074 99.6325 193.761 99.8978 193.761 100.308C193.761 100.742 194.074 101.007 194.388 101.007ZM207.471 99.2227C205.252 99.2227 203.203 100.886 203.203 103.418V107.348C203.203 109.903 205.252 111.543 207.471 111.543C209.689 111.543 211.738 109.807 211.738 107.348V103.418C211.738 100.959 209.689 99.2227 207.471 99.2227ZM209.906 107.348C209.906 108.77 208.821 109.903 207.471 109.903C206.12 109.903 205.035 108.818 205.035 107.348V103.418C205.035 101.971 206.12 100.862 207.471 100.862C208.821 100.862 209.906 101.971 209.906 103.418V107.348ZM217.052 103.49C217.052 101.802 218.186 100.959 219.391 100.959H219.729C220.259 100.959 220.621 100.645 220.621 100.091C220.621 99.5361 220.235 99.2468 219.729 99.2468C219.029 99.2468 218.644 99.4879 217.896 99.9701C217.679 100.115 217.462 100.284 217.293 100.284C217.076 100.284 216.932 100.091 216.763 99.8978C216.57 99.6567 216.329 99.3673 215.967 99.3673C215.606 99.3673 215.22 99.6084 215.22 100.067V110.53C215.22 111.061 215.582 111.398 216.136 111.398C216.691 111.398 217.052 111.061 217.052 110.53V103.49ZM230.328 103.37C230.328 100.983 228.4 99.2227 226.133 99.2227C225.072 99.2227 224.036 99.6084 223.385 99.946C223.023 100.139 222.734 100.404 222.734 100.814C222.734 101.248 223.071 101.634 223.553 101.634C223.794 101.634 224.084 101.489 224.277 101.393C224.807 101.127 225.41 100.862 226.133 100.862C227.507 100.862 228.496 102.044 228.496 103.37V104.382H226.181C223.794 104.382 221.938 105.539 221.938 107.854C221.938 110.072 223.578 111.543 225.747 111.543C226.591 111.543 227.146 111.229 227.676 110.916C227.917 110.771 228.11 110.627 228.351 110.627C228.568 110.627 228.665 110.771 228.833 110.964C229.026 111.205 229.267 111.446 229.581 111.446C230.015 111.446 230.328 111.205 230.328 110.747V103.37ZM226.181 105.877H228.496V107.782C228.496 109.132 227.435 109.903 226.109 109.903C224.759 109.903 223.746 109.18 223.746 107.854C223.746 106.552 224.783 105.877 226.181 105.877ZM237.626 99.295C235.601 99.295 233.817 100.79 233.817 102.815V104.527C233.817 105.564 234.371 106.576 234.998 107.058V107.107C234.178 107.444 233.744 108.143 233.744 108.818C233.744 109.494 234.13 110.12 234.709 110.361C233.792 110.699 232.9 111.615 232.9 112.941C232.9 115.232 234.781 116.389 237.771 116.389C240.664 116.389 242.641 115.183 242.641 112.797C242.641 110.675 241.098 109.518 238.831 109.518H236.734C235.986 109.518 235.48 109.108 235.48 108.65C235.48 108.312 235.625 107.975 236.107 107.758C236.107 107.758 237.12 107.975 237.626 107.975C239.482 107.975 241.459 106.6 241.459 104.43V102.815C241.459 102.285 241.291 101.537 240.977 101.151L241.074 101.176C241.966 101.2 242.593 100.983 243.002 100.669C243.292 100.452 243.436 100.235 243.436 99.8495C243.436 99.3914 243.099 99.0298 242.617 99.0298C242.303 99.0298 242.086 99.1745 241.893 99.3191C241.459 99.6567 240.905 99.8978 240.471 99.8978C240.182 99.8978 239.868 99.8736 239.627 99.7531C239.217 99.5361 238.59 99.295 237.626 99.295ZM235.601 102.815C235.601 101.658 236.517 100.886 237.626 100.886C238.735 100.886 239.675 101.658 239.675 102.815V104.479C239.675 105.588 238.639 106.383 237.626 106.383C236.613 106.383 235.601 105.612 235.601 104.479V102.815ZM238.687 111.061C240.109 111.061 240.857 111.688 240.857 112.797C240.857 114.147 239.506 114.75 237.722 114.75C235.938 114.75 234.684 114.243 234.684 112.941C234.684 111.688 235.456 111.061 236.758 111.061H238.687ZM252.422 105.877C253.001 105.877 253.387 105.467 253.387 104.937V103.345C253.387 100.91 251.313 99.2227 249.167 99.2227C247.022 99.2227 244.948 100.91 244.948 103.345V107.348C244.948 109.783 246.781 111.543 249.264 111.543C250.518 111.543 251.482 111.133 252.181 110.699C252.567 110.458 252.784 110.217 252.784 109.831C252.784 109.373 252.422 108.987 251.988 108.987C251.723 108.987 251.53 109.084 251.265 109.252C250.807 109.542 250.132 109.903 249.264 109.903C247.89 109.903 246.781 108.843 246.781 107.348V105.877H252.422ZM251.554 104.382H246.781V103.345C246.781 101.899 247.841 100.862 249.167 100.862C250.493 100.862 251.554 101.971 251.554 103.345V104.382ZM266.849 111.495C268.175 111.495 269.236 111.085 270.079 110.578C270.465 110.337 270.634 110.145 270.634 109.735C270.634 109.277 270.248 108.915 269.814 108.915C269.525 108.915 269.332 109.035 269.115 109.156C268.512 109.469 267.717 109.807 266.849 109.807C265.04 109.807 263.69 108.288 263.69 106.407V99.8978C263.69 98.0172 265.04 96.4982 266.849 96.4982C267.717 96.4982 268.488 96.7876 269.091 97.1251C269.308 97.2457 269.525 97.3903 269.814 97.3903C270.248 97.3903 270.634 97.0528 270.634 96.5947C270.634 96.1848 270.441 95.9437 270.055 95.7026C269.236 95.1963 268.175 94.8105 266.849 94.8105C264.124 94.8105 261.81 96.8358 261.81 99.8978V106.407C261.81 109.469 264.124 111.495 266.849 111.495ZM275.35 94.9793C275.35 94.4489 274.988 94.1114 274.433 94.1114C273.879 94.1114 273.517 94.4489 273.517 94.9793V110.53C273.517 111.061 273.879 111.398 274.433 111.398C274.988 111.398 275.35 111.061 275.35 110.53V94.9793ZM283.097 99.2227C280.879 99.2227 278.829 100.886 278.829 103.418V107.348C278.829 109.903 280.879 111.543 283.097 111.543C285.315 111.543 287.364 109.807 287.364 107.348V103.418C287.364 100.959 285.315 99.2227 283.097 99.2227ZM285.532 107.348C285.532 108.77 284.447 109.903 283.097 109.903C281.747 109.903 280.662 108.818 280.662 107.348V103.418C280.662 101.971 281.747 100.862 283.097 100.862C284.447 100.862 285.532 101.971 285.532 103.418V107.348ZM295.041 109.903C293.595 109.903 292.63 108.746 292.63 107.348V100.235C292.63 99.7049 292.269 99.3673 291.714 99.3673C291.16 99.3673 290.798 99.7049 290.798 100.235V107.348C290.798 109.783 292.462 111.543 294.439 111.543C295.403 111.543 296.078 111.133 296.584 110.844C296.85 110.675 297.067 110.554 297.26 110.554C297.477 110.554 297.621 110.723 297.79 110.916C298.007 111.157 298.224 111.422 298.561 111.422C298.971 111.422 299.285 111.133 299.285 110.699V100.235C299.285 99.7049 298.923 99.3673 298.369 99.3673C297.814 99.3673 297.452 99.7049 297.452 100.235V107.348C297.452 108.77 296.488 109.903 295.041 109.903ZM311.239 110.699V94.9793C311.239 94.4489 310.877 94.1114 310.323 94.1114C309.768 94.1114 309.406 94.4489 309.406 94.9793V99.7531C309.406 99.8978 309.334 100.042 309.214 100.042C309.093 100.042 309.045 99.9942 308.948 99.9219C308.297 99.4397 307.695 99.2227 306.851 99.2227C304.633 99.2227 302.704 100.862 302.704 103.418V107.324C302.704 109.759 304.392 111.543 306.489 111.543C307.405 111.543 308.056 111.133 308.539 110.844C308.804 110.675 309.045 110.554 309.238 110.554C309.431 110.554 309.599 110.723 309.744 110.892C309.937 111.133 310.178 111.398 310.516 111.398C310.925 111.398 311.239 111.133 311.239 110.699ZM304.536 103.418C304.536 101.923 305.621 100.862 306.971 100.862C308.322 100.862 309.406 101.923 309.406 103.418V107.348C309.406 108.722 308.273 109.903 306.923 109.903C305.573 109.903 304.536 108.698 304.536 107.348V103.418Z" fill="#54318E"/>
</g>
<defs>
<clipPath id="clip0_2_147">
<rect width="354.71" height="156.35" fill="white" transform="translate(0 0.350006)"/>
</clipPath>
</defs>
</svg>
