<svg width="355" height="157" viewBox="0 0 355 157" fill="none" xmlns="http://www.w3.org/2000/svg">
<g clip-path="url(#clip0_2_74)">
<path d="M90.73 72.76C83.02 89.76 117.44 86.05 119.33 99.15C117.56 84.15 88.24 87.88 90.73 72.76ZM115.39 66C112.911 63.4427 110.111 61.2175 107.06 59.38C110.63 62.38 112.06 65.38 112.06 68.48C113.18 68.86 114.3 69.28 115.45 69.7C116 69.91 116.15 69.35 116.13 69.01C116.13 67.91 116.13 66.75 115.39 66.01V66ZM65.69 134C69.69 142.28 78.69 146 80.69 146.13C70.37 138.49 58.9 114.47 70.07 78.63C60.31 97.88 61.1 124.5 65.69 134.07V134ZM101.86 46.57C102.882 44.0212 104.277 41.6385 106 39.5C101.58 40.4531 97.6176 42.8875 94.77 46.4C81.19 24.83 32.3 33.06 32.3 66.59C33.03 64.13 37.12 58.19 42.19 59.08C42.13 77 18.85 76.38 16.05 73.16C23.9 82.16 30.58 81.8 35.91 79.22C29.47 90.12 18.05 93.3 7.99999 87.38C9.19874 91.2858 11.37 94.8231 14.31 97.66C21.79 104.73 31.2 102.88 36.79 94.25C53.1 69.12 61.31 62 72.26 61.67C40.17 71.27 48.76 141.67 2.56999 104.82C0.817628 95.3143 -0.0427781 85.6657 -6.5919e-06 76V35.59C-0.00235191 34.7689 0.15818 33.9554 0.472298 33.1967C0.786416 32.438 1.24788 31.7492 1.82999 31.17C2.3999 30.5885 3.07975 30.1262 3.82999 29.81L75.82 0L147.82 29.81C148.572 30.1229 149.253 30.5856 149.82 31.17C150.402 31.7492 150.864 32.438 151.178 33.1967C151.492 33.9554 151.652 34.7689 151.65 35.59V76C151.65 98.06 147.65 117.39 139.65 134.38C136.008 142.196 131.496 149.575 126.2 156.38C115.13 156.38 62.45 116.88 87.62 89.89C92.18 99.62 106 93.14 116.83 104.55C122.35 112.21 130.26 109.33 134.95 104.36C138.72 100.36 139.15 94.06 133.5 88.95C127.36 83.95 124.15 78.95 120.67 71.23C123.58 64.63 115.67 59.4 109.88 55.56C108.6 52.69 108.88 51.43 109.44 49.73C110.577 46.8214 112.141 44.0982 114.08 41.65C109.134 42.728 104.693 45.4361 101.47 49.34C101.38 48.4217 101.513 47.4952 101.86 46.64V46.57Z" fill="#003E7B"/>
<path d="M185.068 79.02H206.194V77.004H187.252V65.202H204.094V63.186H187.252V51.636H205.984V49.62H185.068V79.02ZM213.205 79.02H215.389V68.058H223.327C229.501 68.058 234.793 64.908 234.793 58.692V58.608C234.793 52.938 230.341 49.62 223.873 49.62H213.205V79.02ZM215.389 66.042V51.636H223.705C228.955 51.636 232.609 54.072 232.609 58.734V58.818C232.609 63.228 228.913 66.042 223.453 66.042H215.389Z" fill="#00AFE5"/>
<path d="M250.877 79.44C257.219 79.44 261.671 76.164 261.671 70.326V70.242C261.671 65.118 258.311 63.018 252.347 61.422C247.265 60.078 246.005 59.532 246.005 57.558V57.474C246.005 56.004 247.265 54.912 249.785 54.912C252.305 54.912 254.783 56.004 257.429 57.81L260.789 52.938C257.765 50.544 254.195 49.2 249.869 49.2C243.821 49.2 239.579 52.728 239.579 58.062V58.146C239.579 63.942 243.359 65.664 249.323 67.134C254.237 68.352 255.245 69.234 255.245 70.872V70.956C255.245 72.678 253.691 73.728 251.003 73.728C247.643 73.728 244.913 72.342 242.225 70.158L238.403 74.736C241.931 77.928 246.383 79.44 250.877 79.44ZM281.565 79.524C290.637 79.524 297.231 72.678 297.231 64.32V64.236C297.231 55.878 290.721 49.116 281.649 49.116C272.577 49.116 265.983 55.962 265.983 64.32V64.404C265.983 72.762 272.493 79.524 281.565 79.524ZM281.649 73.56C276.441 73.56 272.745 69.36 272.745 64.32V64.236C272.745 59.196 276.357 55.08 281.565 55.08C286.773 55.08 290.469 59.28 290.469 64.32V64.404C290.469 69.444 286.857 73.56 281.649 73.56ZM302.968 79.02H309.436V67.638H323.464V61.758H309.436V55.5H325.354V49.62H302.968V79.02ZM337.377 79.02H343.845V55.584H352.791V49.62H328.431V55.584H337.377V79.02Z" fill="#003E7B"/>
<path d="M184.966 111.048C185.544 111.048 185.906 110.711 185.906 110.18V104.683H188.124C191.282 104.683 193.356 102.875 193.356 99.6442C193.356 96.534 191.306 94.6052 188.124 94.6052H184.966C184.411 94.6052 184.025 94.9427 184.025 95.4732V110.18C184.025 110.711 184.387 111.048 184.966 111.048ZM191.475 99.6442C191.475 101.694 190.294 102.995 188.124 102.995H185.906V96.2929H188.124C190.294 96.2929 191.475 97.5948 191.475 99.6442ZM197.934 103.14C197.934 101.452 199.067 100.609 200.273 100.609H200.61C201.141 100.609 201.502 100.295 201.502 99.7406C201.502 99.1861 201.116 98.8968 200.61 98.8968C199.911 98.8968 199.525 99.1379 198.778 99.6201C198.561 99.7647 198.344 99.9335 198.175 99.9335C197.958 99.9335 197.813 99.7406 197.645 99.5477C197.452 99.3066 197.211 99.0173 196.849 99.0173C196.487 99.0173 196.102 99.2584 196.102 99.7165V110.18C196.102 110.711 196.463 111.048 197.018 111.048C197.572 111.048 197.934 110.711 197.934 110.18V103.14ZM205.704 99.8853C205.704 99.3549 205.342 99.0173 204.788 99.0173C204.233 99.0173 203.871 99.3549 203.871 99.8853V110.18C203.871 110.711 204.233 111.048 204.788 111.048C205.342 111.048 205.704 110.711 205.704 110.18V99.8853ZM203.606 95.1597C203.606 95.8589 204.185 96.317 204.788 96.317C205.414 96.317 205.969 95.8589 205.969 95.1597C205.969 94.4605 205.39 94.0024 204.788 94.0024C204.209 94.0024 203.606 94.4605 203.606 95.1597ZM213.138 111.048C213.716 111.048 214.005 110.735 214.174 110.277L217.694 100.199C217.743 100.054 217.767 99.9576 217.767 99.8371C217.767 99.4031 217.357 99.0173 216.826 99.0173C216.368 99.0173 216.079 99.2584 215.958 99.6442L213.427 107.456L213.138 108.42L212.848 107.456L210.317 99.6442C210.196 99.2584 209.907 99.0173 209.449 99.0173C208.918 99.0173 208.508 99.4031 208.508 99.8371C208.508 99.9576 208.532 100.054 208.581 100.199L212.101 110.277C212.27 110.735 212.559 111.048 213.138 111.048ZM228.044 103.02C228.044 100.633 226.116 98.8727 223.849 98.8727C222.788 98.8727 221.752 99.2584 221.101 99.596C220.739 99.7888 220.45 100.054 220.45 100.464C220.45 100.898 220.787 101.284 221.27 101.284C221.511 101.284 221.8 101.139 221.993 101.043C222.523 100.777 223.126 100.512 223.849 100.512C225.224 100.512 226.212 101.694 226.212 103.02V104.032H223.898C221.511 104.032 219.654 105.189 219.654 107.504C219.654 109.722 221.294 111.193 223.464 111.193C224.307 111.193 224.862 110.879 225.392 110.566C225.633 110.421 225.826 110.277 226.067 110.277C226.284 110.277 226.381 110.421 226.55 110.614C226.743 110.855 226.984 111.096 227.297 111.096C227.731 111.096 228.044 110.855 228.044 110.397V103.02ZM223.898 105.527H226.212V107.432C226.212 108.782 225.151 109.553 223.825 109.553C222.475 109.553 221.462 108.83 221.462 107.504C221.462 106.202 222.499 105.527 223.898 105.527ZM233.148 103.116C233.148 101.525 234.329 100.512 235.631 100.512C236.282 100.512 236.789 100.753 237.271 101.043C237.44 101.139 237.633 101.235 237.849 101.235C238.283 101.235 238.645 100.874 238.645 100.44C238.645 100.054 238.452 99.8371 238.115 99.6201C237.464 99.2102 236.692 98.8727 235.631 98.8727C233.389 98.8727 231.316 100.464 231.316 103.116V106.95C231.316 109.602 233.389 111.193 235.631 111.193C236.692 111.193 237.488 110.855 238.115 110.445C238.452 110.228 238.645 110.011 238.645 109.626C238.645 109.192 238.283 108.83 237.849 108.83C237.633 108.83 237.44 108.927 237.271 109.023C236.789 109.288 236.258 109.553 235.631 109.553C234.329 109.553 233.148 108.541 233.148 106.95V103.116ZM241.884 113.869C241.474 113.941 241.184 114.279 241.184 114.737C241.184 115.243 241.522 115.581 242.076 115.581C243.378 115.581 244.56 114.351 245.138 112.688L249.551 100.223C249.599 100.078 249.623 99.9576 249.623 99.8371C249.623 99.4272 249.213 99.0173 248.683 99.0173C248.225 99.0173 247.935 99.2584 247.815 99.6442L245.283 107.48L244.994 108.444L244.704 107.48L242.173 99.6442C242.052 99.2584 241.763 99.0173 241.305 99.0173C240.775 99.0173 240.365 99.4272 240.365 99.8371C240.365 99.9576 240.389 100.078 240.437 100.223L244.053 110.518L243.378 112.302C243.065 113.122 242.486 113.749 241.884 113.869ZM261.668 111.193C263.283 111.193 264.634 110.445 265.646 109.312C266.466 110.228 267.021 110.807 267.021 110.807C267.238 111.024 267.43 111.169 267.72 111.169C268.226 111.169 268.564 110.807 268.564 110.397C268.564 110.156 268.491 109.963 268.347 109.794C268.347 109.794 267.599 108.975 266.659 107.89C267.31 106.66 267.672 105.214 267.672 103.815C267.672 103.309 267.262 103.02 266.828 103.02C266.37 103.02 265.984 103.309 265.984 103.815C265.984 104.804 265.791 105.72 265.477 106.54C264.465 105.358 263.38 104.08 262.657 103.14C260.511 100.416 259.763 99.4754 259.763 98.1976C259.763 96.9921 260.583 95.9795 261.861 95.9795C262.753 95.9795 263.356 96.6304 263.862 96.6304C264.344 96.6304 264.658 96.2688 264.658 95.8589C264.658 95.5214 264.441 95.2803 264.2 95.1115C263.669 94.7499 262.825 94.4123 261.861 94.4123C259.812 94.4123 258.003 95.9795 258.003 98.1976C258.003 99.7406 258.654 100.85 259.667 102.152C258.076 103.237 256.943 104.466 256.943 106.564C256.943 109.144 258.799 111.193 261.668 111.193ZM261.21 104.056C262.271 105.431 263.5 106.877 264.561 108.083C263.814 108.975 262.825 109.529 261.668 109.529C259.932 109.529 258.63 108.3 258.63 106.564C258.63 105.286 259.45 104.153 260.607 103.309L261.21 104.056ZM280.277 96.1482C281.241 96.1482 282.134 96.534 282.664 96.8715C282.905 97.0162 283.17 97.1609 283.46 97.1609C283.918 97.1609 284.255 96.751 284.255 96.3411C284.255 95.9554 283.99 95.666 283.677 95.4732C282.688 94.8704 281.675 94.4605 280.277 94.4605C277.818 94.4605 275.503 96.4858 275.503 99.0655C275.503 101.838 278.131 102.875 279.674 103.429C281.097 103.936 282.76 104.611 282.76 106.491C282.76 108.179 281.338 109.457 279.698 109.457C278.758 109.457 277.987 109.119 277.384 108.806C276.974 108.589 276.733 108.396 276.371 108.396C275.865 108.396 275.503 108.782 275.503 109.288C275.503 109.722 275.841 110.036 276.395 110.325C277.336 110.807 278.3 111.145 279.698 111.145C282.495 111.145 284.617 108.975 284.617 106.491C284.617 103.405 282.302 102.561 280.687 101.935C279.24 101.38 277.36 100.801 277.36 99.0655C277.36 97.4502 278.686 96.1482 280.277 96.1482ZM294.733 105.527C295.311 105.527 295.697 105.117 295.697 104.587V102.995C295.697 100.56 293.623 98.8727 291.478 98.8727C289.332 98.8727 287.258 100.56 287.258 102.995V106.998C287.258 109.433 289.091 111.193 291.574 111.193C292.828 111.193 293.792 110.783 294.491 110.349C294.877 110.108 295.094 109.867 295.094 109.481C295.094 109.023 294.733 108.637 294.299 108.637C294.033 108.637 293.84 108.734 293.575 108.902C293.117 109.192 292.442 109.553 291.574 109.553C290.2 109.553 289.091 108.493 289.091 106.998V105.527H294.733ZM293.865 104.032H289.091V102.995C289.091 101.549 290.152 100.512 291.478 100.512C292.804 100.512 293.865 101.621 293.865 102.995V104.032ZM300.322 103.116C300.322 101.525 301.503 100.512 302.805 100.512C303.456 100.512 303.962 100.753 304.445 101.043C304.613 101.139 304.806 101.235 305.023 101.235C305.457 101.235 305.819 100.874 305.819 100.44C305.819 100.054 305.626 99.8371 305.288 99.6201C304.637 99.2102 303.866 98.8727 302.805 98.8727C300.563 98.8727 298.489 100.464 298.489 103.116V106.95C298.489 109.602 300.563 111.193 302.805 111.193C303.866 111.193 304.662 110.855 305.288 110.445C305.626 110.228 305.819 110.011 305.819 109.626C305.819 109.192 305.457 108.83 305.023 108.83C304.806 108.83 304.613 108.927 304.445 109.023C303.962 109.288 303.432 109.553 302.805 109.553C301.503 109.553 300.322 108.541 300.322 106.95V103.116ZM312.794 109.553C311.348 109.553 310.383 108.396 310.383 106.998V99.8853C310.383 99.3549 310.022 99.0173 309.467 99.0173C308.913 99.0173 308.551 99.3549 308.551 99.8853V106.998C308.551 109.433 310.215 111.193 312.192 111.193C313.156 111.193 313.831 110.783 314.337 110.494C314.603 110.325 314.82 110.204 315.012 110.204C315.229 110.204 315.374 110.373 315.543 110.566C315.76 110.807 315.977 111.072 316.314 111.072C316.724 111.072 317.038 110.783 317.038 110.349V99.8853C317.038 99.3549 316.676 99.0173 316.121 99.0173C315.567 99.0173 315.205 99.3549 315.205 99.8853V106.998C315.205 108.42 314.241 109.553 312.794 109.553ZM322.675 103.14C322.675 101.452 323.808 100.609 325.014 100.609H325.351C325.882 100.609 326.243 100.295 326.243 99.7406C326.243 99.1861 325.857 98.8968 325.351 98.8968C324.652 98.8968 324.266 99.1379 323.519 99.6201C323.302 99.7647 323.085 99.9335 322.916 99.9335C322.699 99.9335 322.554 99.7406 322.386 99.5477C322.193 99.3066 321.952 99.0173 321.59 99.0173C321.228 99.0173 320.843 99.2584 320.843 99.7165V110.18C320.843 110.711 321.204 111.048 321.759 111.048C322.313 111.048 322.675 110.711 322.675 110.18V103.14ZM330.445 99.8853C330.445 99.3549 330.083 99.0173 329.529 99.0173C328.974 99.0173 328.612 99.3549 328.612 99.8853V110.18C328.612 110.711 328.974 111.048 329.529 111.048C330.083 111.048 330.445 110.711 330.445 110.18V99.8853ZM328.347 95.1597C328.347 95.8589 328.926 96.317 329.529 96.317C330.155 96.317 330.71 95.8589 330.71 95.1597C330.71 94.4605 330.131 94.0024 329.529 94.0024C328.95 94.0024 328.347 94.4605 328.347 95.1597ZM333.515 100.657H335.154V108.034C335.154 109.891 336.48 111.193 338.264 111.193C339.205 111.193 340.145 110.879 340.145 110.204C340.145 109.746 339.904 109.409 339.422 109.409C339.084 109.409 338.674 109.602 338.361 109.602C337.613 109.602 336.986 108.975 336.986 108.034V100.657H339.277C339.759 100.657 340.073 100.367 340.073 99.8612C340.073 99.379 339.759 99.0655 339.277 99.0655H336.986V96.6063C336.986 96.1965 336.673 95.9312 336.239 95.9312C335.829 95.9312 335.492 96.2206 335.443 96.5822L335.154 99.0897H335.13L333.515 99.2584C333.201 99.2825 332.888 99.5477 332.888 99.9576C332.888 100.392 333.201 100.657 333.515 100.657ZM343.268 113.869C342.858 113.941 342.569 114.279 342.569 114.737C342.569 115.243 342.906 115.581 343.461 115.581C344.763 115.581 345.944 114.351 346.523 112.688L350.935 100.223C350.983 100.078 351.007 99.9576 351.007 99.8371C351.007 99.4272 350.597 99.0173 350.067 99.0173C349.609 99.0173 349.32 99.2584 349.199 99.6442L346.668 107.48L346.378 108.444L346.089 107.48L343.557 99.6442C343.437 99.2584 343.147 99.0173 342.689 99.0173C342.159 99.0173 341.749 99.4272 341.749 99.8371C341.749 99.9576 341.773 100.078 341.821 100.223L345.438 110.518L344.763 112.302C344.449 113.122 343.871 113.749 343.268 113.869Z" fill="#003E7B"/>
</g>
<defs>
<clipPath id="clip0_2_74">
<rect width="354.71" height="156.35" fill="white"/>
</clipPath>
</defs>
</svg>
