<svg width="355" height="158" viewBox="0 0 355 158" fill="none" xmlns="http://www.w3.org/2000/svg">
<g clip-path="url(#clip0_2_148)">
<path d="M90.73 73.46C83.02 90.46 117.44 86.75 119.33 99.85C117.56 84.85 88.24 88.58 90.73 73.46ZM115.39 66.7C112.911 64.1427 110.111 61.9175 107.06 60.08C110.63 63.08 112.06 66.08 112.06 69.18C113.18 69.56 114.3 69.98 115.45 70.4C116 70.61 116.15 70.05 116.13 69.71C116.13 68.61 116.13 67.45 115.39 66.71V66.7ZM65.69 134.7C69.69 142.98 78.69 146.7 80.69 146.83C70.37 139.19 58.9 115.17 70.07 79.33C60.31 98.58 61.1 125.2 65.69 134.77V134.7ZM101.86 47.27C102.882 44.7212 104.277 42.3385 106 40.2C101.58 41.1531 97.6176 43.5875 94.77 47.1C81.19 25.53 32.3 33.76 32.3 67.29C33.03 64.83 37.12 58.89 42.19 59.78C42.13 77.7 18.85 77.08 16.05 73.86C23.9 82.86 30.58 82.5 35.91 79.92C29.47 90.82 18.05 94 7.99999 88.08C9.19874 91.9858 11.37 95.5231 14.31 98.36C21.79 105.43 31.2 103.58 36.79 94.95C53.1 69.82 61.31 62.7 72.26 62.37C40.17 71.97 48.76 142.37 2.56999 105.52C0.817628 96.0144 -0.0427781 86.3658 -6.5919e-06 76.7V36.29C-0.00235191 35.4689 0.15818 34.6554 0.472298 33.8967C0.786416 33.138 1.24788 32.4492 1.82999 31.87C2.3999 31.2886 3.07975 30.8263 3.82999 30.51L75.82 0.700012L147.82 30.51C148.572 30.8229 149.253 31.2856 149.82 31.87C150.402 32.4492 150.864 33.138 151.178 33.8967C151.492 34.6554 151.652 35.4689 151.65 36.29V76.7C151.65 98.76 147.65 118.09 139.65 135.08C136.008 142.896 131.496 150.275 126.2 157.08C115.13 157.08 62.45 117.58 87.62 90.59C92.18 100.32 106 93.84 116.83 105.25C122.35 112.91 130.26 110.03 134.95 105.06C138.72 101.06 139.15 94.76 133.5 89.65C127.36 84.65 124.15 79.65 120.67 71.93C123.58 65.33 115.67 60.1 109.88 56.26C108.6 53.39 108.88 52.13 109.44 50.43C110.577 47.5214 112.141 44.7982 114.08 42.35C109.134 43.428 104.693 46.1362 101.47 50.04C101.38 49.1217 101.513 48.1952 101.86 47.34V47.27Z" fill="#00A7E2"/>
<path d="M185.068 79.72H206.194V77.704H187.252V65.902H204.094V63.886H187.252V52.336H205.984V50.32H185.068V79.72ZM213.205 79.72H215.389V68.758H223.327C229.501 68.758 234.793 65.608 234.793 59.392V59.308C234.793 53.638 230.341 50.32 223.873 50.32H213.205V79.72ZM215.389 66.742V52.336H223.705C228.955 52.336 232.609 54.772 232.609 59.434V59.518C232.609 63.928 228.913 66.742 223.453 66.742H215.389Z" fill="#00A7E2"/>
<path d="M250.877 80.14C257.219 80.14 261.671 76.864 261.671 71.026V70.942C261.671 65.818 258.311 63.718 252.347 62.122C247.265 60.778 246.005 60.232 246.005 58.258V58.174C246.005 56.704 247.265 55.612 249.785 55.612C252.305 55.612 254.783 56.704 257.429 58.51L260.789 53.638C257.765 51.244 254.195 49.9 249.869 49.9C243.821 49.9 239.579 53.428 239.579 58.762V58.846C239.579 64.642 243.359 66.364 249.323 67.834C254.237 69.052 255.245 69.934 255.245 71.572V71.656C255.245 73.378 253.691 74.428 251.003 74.428C247.643 74.428 244.913 73.042 242.225 70.858L238.403 75.436C241.931 78.628 246.383 80.14 250.877 80.14ZM281.565 80.224C290.637 80.224 297.231 73.378 297.231 65.02V64.936C297.231 56.578 290.721 49.816 281.649 49.816C272.577 49.816 265.983 56.662 265.983 65.02V65.104C265.983 73.462 272.493 80.224 281.565 80.224ZM281.649 74.26C276.441 74.26 272.745 70.06 272.745 65.02V64.936C272.745 59.896 276.357 55.78 281.565 55.78C286.773 55.78 290.469 59.98 290.469 65.02V65.104C290.469 70.144 286.857 74.26 281.649 74.26ZM302.968 79.72H309.436V68.338H323.464V62.458H309.436V56.2H325.354V50.32H302.968V79.72ZM337.377 79.72H343.845V56.284H352.791V50.32H328.431V56.284H337.377V79.72Z" fill="#003E7B"/>
<path d="M193.766 100.127C193.766 97.1858 191.716 95.3052 188.823 95.3052H184.966C184.435 95.3052 184.025 95.6428 184.025 96.1732V110.832C184.025 111.362 184.435 111.7 184.966 111.7H188.823C191.716 111.7 193.766 109.819 193.766 106.878V100.127ZM185.906 96.9929H188.823C190.463 96.9929 191.885 98.1743 191.885 100.127V106.878C191.885 108.831 190.463 110.012 188.823 110.012H185.906V96.9929ZM205.088 103.72C205.088 101.333 203.159 99.5727 200.893 99.5727C199.832 99.5727 198.795 99.9584 198.144 100.296C197.783 100.489 197.494 100.754 197.494 101.164C197.494 101.598 197.831 101.984 198.313 101.984C198.554 101.984 198.844 101.839 199.037 101.743C199.567 101.477 200.17 101.212 200.893 101.212C202.267 101.212 203.256 102.394 203.256 103.72V104.732H200.941C198.554 104.732 196.698 105.89 196.698 108.204C196.698 110.422 198.337 111.893 200.507 111.893C201.351 111.893 201.906 111.579 202.436 111.266C202.677 111.121 202.87 110.977 203.111 110.977C203.328 110.977 203.425 111.121 203.593 111.314C203.786 111.555 204.027 111.796 204.341 111.796C204.775 111.796 205.088 111.555 205.088 111.097V103.72ZM200.941 106.227H203.256V108.132C203.256 109.482 202.195 110.253 200.869 110.253C199.519 110.253 198.506 109.53 198.506 108.204C198.506 106.902 199.543 106.227 200.941 106.227ZM207.761 101.357H209.401V108.734C209.401 110.591 210.727 111.893 212.511 111.893C213.451 111.893 214.391 111.579 214.391 110.904C214.391 110.446 214.15 110.109 213.668 110.109C213.331 110.109 212.921 110.302 212.607 110.302C211.86 110.302 211.233 109.675 211.233 108.734V101.357H213.523C214.006 101.357 214.319 101.068 214.319 100.561C214.319 100.079 214.006 99.7656 213.523 99.7656H211.233V97.3063C211.233 96.8965 210.92 96.6313 210.486 96.6313C210.076 96.6313 209.738 96.9206 209.69 97.2822L209.401 99.7897H209.377L207.761 99.9584C207.448 99.9826 207.134 100.248 207.134 100.658C207.134 101.092 207.448 101.357 207.761 101.357ZM224.678 103.72C224.678 101.333 222.749 99.5727 220.482 99.5727C219.422 99.5727 218.385 99.9584 217.734 100.296C217.372 100.489 217.083 100.754 217.083 101.164C217.083 101.598 217.42 101.984 217.903 101.984C218.144 101.984 218.433 101.839 218.626 101.743C219.156 101.477 219.759 101.212 220.482 101.212C221.857 101.212 222.845 102.394 222.845 103.72V104.732H220.531C218.144 104.732 216.287 105.89 216.287 108.204C216.287 110.422 217.927 111.893 220.097 111.893C220.94 111.893 221.495 111.579 222.025 111.266C222.267 111.121 222.459 110.977 222.701 110.977C222.917 110.977 223.014 111.121 223.183 111.314C223.376 111.555 223.617 111.796 223.93 111.796C224.364 111.796 224.678 111.555 224.678 111.097V103.72ZM220.531 106.227H222.845V108.132C222.845 109.482 221.784 110.253 220.458 110.253C219.108 110.253 218.095 109.53 218.095 108.204C218.095 106.902 219.132 106.227 220.531 106.227ZM243.657 100.127C243.657 97.1858 241.608 95.3052 238.715 95.3052H234.857C234.327 95.3052 233.917 95.6428 233.917 96.1732V110.832C233.917 111.362 234.327 111.7 234.857 111.7H238.715C241.608 111.7 243.657 109.819 243.657 106.878V100.127ZM235.798 96.9929H238.715C240.354 96.9929 241.777 98.1743 241.777 100.127V106.878C241.777 108.831 240.354 110.012 238.715 110.012H235.798V96.9929ZM249.097 100.585C249.097 100.055 248.735 99.7173 248.181 99.7173C247.626 99.7173 247.265 100.055 247.265 100.585V110.88C247.265 111.411 247.626 111.748 248.181 111.748C248.735 111.748 249.097 111.411 249.097 110.88V100.585ZM246.999 95.8597C246.999 96.5589 247.578 97.017 248.181 97.017C248.808 97.017 249.362 96.5589 249.362 95.8597C249.362 95.1606 248.784 94.7025 248.181 94.7025C247.602 94.7025 246.999 95.1606 246.999 95.8597ZM256.29 101.212C257.061 101.212 257.543 101.429 258.122 101.694C258.339 101.791 258.508 101.887 258.725 101.887C259.183 101.887 259.545 101.526 259.545 101.092C259.545 100.682 259.303 100.417 258.918 100.224C258.243 99.862 257.326 99.5727 256.29 99.5727C254.216 99.5727 252.384 101.164 252.384 103.165C252.384 105.287 254.409 106.058 255.687 106.42C256.965 106.782 258.05 107.24 258.05 108.349C258.05 109.385 257.206 110.253 255.928 110.253C255.229 110.253 254.457 109.916 254.047 109.699C253.758 109.53 253.493 109.434 253.252 109.434C252.818 109.434 252.408 109.747 252.408 110.253C252.408 110.687 252.625 110.953 253.107 111.194C254.023 111.652 254.867 111.893 255.928 111.893C258.267 111.893 259.858 110.326 259.858 108.301C259.858 106.034 258.098 105.383 256.555 104.925C255.518 104.612 254.168 104.226 254.168 103.165C254.168 102.08 255.157 101.212 256.29 101.212ZM264.345 103.816C264.345 102.225 265.526 101.212 266.828 101.212C267.479 101.212 267.986 101.453 268.468 101.743C268.637 101.839 268.83 101.935 269.047 101.935C269.481 101.935 269.842 101.574 269.842 101.14C269.842 100.754 269.649 100.537 269.312 100.32C268.661 99.9102 267.889 99.5727 266.828 99.5727C264.586 99.5727 262.513 101.164 262.513 103.816V107.65C262.513 110.302 264.586 111.893 266.828 111.893C267.889 111.893 268.685 111.555 269.312 111.145C269.649 110.928 269.842 110.712 269.842 110.326C269.842 109.892 269.481 109.53 269.047 109.53C268.83 109.53 268.637 109.627 268.468 109.723C267.986 109.988 267.455 110.253 266.828 110.253C265.526 110.253 264.345 109.241 264.345 107.65V103.816ZM276.504 99.5727C274.286 99.5727 272.237 101.236 272.237 103.768V107.698C272.237 110.253 274.286 111.893 276.504 111.893C278.722 111.893 280.772 110.157 280.772 107.698V103.768C280.772 101.309 278.722 99.5727 276.504 99.5727ZM278.939 107.698C278.939 109.12 277.854 110.253 276.504 110.253C275.154 110.253 274.069 109.168 274.069 107.698V103.768C274.069 102.321 275.154 101.212 276.504 101.212C277.854 101.212 278.939 102.321 278.939 103.768V107.698ZM287.634 111.748C288.212 111.748 288.502 111.435 288.67 110.977L292.19 100.899C292.239 100.754 292.263 100.658 292.263 100.537C292.263 100.103 291.853 99.7173 291.322 99.7173C290.864 99.7173 290.575 99.9584 290.455 100.344L287.923 108.156L287.634 109.12L287.344 108.156L284.813 100.344C284.692 99.9584 284.403 99.7173 283.945 99.7173C283.414 99.7173 283.005 100.103 283.005 100.537C283.005 100.658 283.029 100.754 283.077 100.899L286.597 110.977C286.766 111.435 287.055 111.748 287.634 111.748ZM301.961 106.227C302.539 106.227 302.925 105.817 302.925 105.287V103.695C302.925 101.26 300.852 99.5727 298.706 99.5727C296.56 99.5727 294.487 101.26 294.487 103.695V107.698C294.487 110.133 296.319 111.893 298.802 111.893C300.056 111.893 301.021 111.483 301.72 111.049C302.105 110.808 302.322 110.567 302.322 110.181C302.322 109.723 301.961 109.337 301.527 109.337C301.262 109.337 301.069 109.434 300.804 109.602C300.345 109.892 299.67 110.253 298.802 110.253C297.428 110.253 296.319 109.193 296.319 107.698V106.227H301.961ZM301.093 104.732H296.319V103.695C296.319 102.249 297.38 101.212 298.706 101.212C300.032 101.212 301.093 102.321 301.093 103.695V104.732ZM307.936 103.84C307.936 102.152 309.069 101.309 310.274 101.309H310.612C311.142 101.309 311.504 100.995 311.504 100.441C311.504 99.8861 311.118 99.5968 310.612 99.5968C309.913 99.5968 309.527 99.8379 308.78 100.32C308.563 100.465 308.346 100.634 308.177 100.634C307.96 100.634 307.815 100.441 307.646 100.248C307.454 100.007 307.212 99.7173 306.851 99.7173C306.489 99.7173 306.103 99.9584 306.103 100.417V110.88C306.103 111.411 306.465 111.748 307.02 111.748C307.574 111.748 307.936 111.411 307.936 110.88V103.84ZM314.331 114.569C313.921 114.641 313.632 114.979 313.632 115.437C313.632 115.943 313.97 116.281 314.524 116.281C315.826 116.281 317.008 115.051 317.586 113.388L321.998 100.923C322.047 100.778 322.071 100.658 322.071 100.537C322.071 100.127 321.661 99.7173 321.13 99.7173C320.672 99.7173 320.383 99.9584 320.262 100.344L317.731 108.18L317.442 109.144L317.152 108.18L314.621 100.344C314.5 99.9584 314.211 99.7173 313.753 99.7173C313.222 99.7173 312.812 100.127 312.812 100.537C312.812 100.658 312.836 100.778 312.885 100.923L316.501 111.218L315.826 113.002C315.513 113.822 314.934 114.449 314.331 114.569Z" fill="#00A7E2"/>
</g>
<defs>
<clipPath id="clip0_2_148">
<rect width="354.71" height="156.35" fill="white" transform="translate(0 0.700012)"/>
</clipPath>
</defs>
</svg>
