<svg width="355" height="157" viewBox="0 0 355 157" fill="none" xmlns="http://www.w3.org/2000/svg">
<g clip-path="url(#clip0_2_152)">
<path d="M90.73 73.1599C83.02 90.1599 117.44 86.4499 119.33 99.5499C117.56 84.5499 88.24 88.2799 90.73 73.1599ZM115.39 66.3999C112.911 63.8426 110.111 61.6174 107.06 59.7799C110.63 62.7799 112.06 65.7799 112.06 68.8799C113.18 69.2599 114.3 69.6799 115.45 70.0999C116 70.3099 116.15 69.7499 116.13 69.4099C116.13 68.3099 116.13 67.1499 115.39 66.4099V66.3999ZM65.69 134.4C69.69 142.68 78.69 146.4 80.69 146.53C70.37 138.89 58.9 114.87 70.07 79.0299C60.31 98.2799 61.1 124.9 65.69 134.47V134.4ZM101.86 46.9699C102.882 44.4211 104.277 42.0384 106 39.8999C101.58 40.853 97.6176 43.2874 94.77 46.7999C81.19 25.2299 32.3 33.4599 32.3 66.9899C33.03 64.5299 37.12 58.5899 42.19 59.4799C42.13 77.3999 18.85 76.7799 16.05 73.5599C23.9 82.5599 30.58 82.1999 35.91 79.6199C29.47 90.5199 18.05 93.6999 7.99999 87.7799C9.19874 91.6857 11.37 95.223 14.31 98.0599C21.79 105.13 31.2 103.28 36.79 94.6499C53.1 69.5199 61.31 62.3999 72.26 62.0699C40.17 71.6699 48.76 142.07 2.56999 105.22C0.817628 95.7142 -0.0427781 86.0656 -6.5919e-06 76.3999V35.9899C-0.00235191 35.1688 0.15818 34.3553 0.472298 33.5966C0.786416 32.8379 1.24788 32.1491 1.82999 31.5699C2.3999 30.9885 3.07975 30.5261 3.82999 30.2099L75.82 0.399902L147.82 30.2099C148.572 30.5228 149.253 30.9855 149.82 31.5699C150.402 32.1491 150.864 32.8379 151.178 33.5966C151.492 34.3553 151.652 35.1688 151.65 35.9899V76.3999C151.65 98.4599 147.65 117.79 139.65 134.78C136.008 142.595 131.496 149.975 126.2 156.78C115.13 156.78 62.45 117.28 87.62 90.2899C92.18 100.02 106 93.5399 116.83 104.95C122.35 112.61 130.26 109.73 134.95 104.76C138.72 100.76 139.15 94.4599 133.5 89.3499C127.36 84.3499 124.15 79.3499 120.67 71.6299C123.58 65.0299 115.67 59.7999 109.88 55.9599C108.6 53.0899 108.88 51.8299 109.44 50.1299C110.577 47.2213 112.141 44.4981 114.08 42.0499C109.134 43.1279 104.693 45.836 101.47 49.7399C101.38 48.8216 101.513 47.8951 101.86 47.0399V46.9699Z" fill="#00AFBA"/>
<path d="M185.068 79.4199H206.194V77.4039H187.252V65.6019H204.094V63.5859H187.252V52.0359H205.984V50.0199H185.068V79.4199ZM213.205 79.4199H215.389V68.4579H223.327C229.501 68.4579 234.793 65.3079 234.793 59.0919V59.0079C234.793 53.3379 230.341 50.0199 223.873 50.0199H213.205V79.4199ZM215.389 66.4419V52.0359H223.705C228.955 52.0359 232.609 54.4719 232.609 59.1339V59.2179C232.609 63.6279 228.913 66.4419 223.453 66.4419H215.389Z" fill="#00AFBA"/>
<path d="M250.877 79.8399C257.219 79.8399 261.671 76.5639 261.671 70.7259V70.6419C261.671 65.5179 258.311 63.4179 252.347 61.8219C247.265 60.4779 246.005 59.9319 246.005 57.9579V57.8739C246.005 56.4039 247.265 55.3119 249.785 55.3119C252.305 55.3119 254.783 56.4039 257.429 58.2099L260.789 53.3379C257.765 50.9439 254.195 49.5999 249.869 49.5999C243.821 49.5999 239.579 53.1279 239.579 58.4619V58.5459C239.579 64.3419 243.359 66.0639 249.323 67.5339C254.237 68.7519 255.245 69.6339 255.245 71.2719V71.3559C255.245 73.0779 253.691 74.1279 251.003 74.1279C247.643 74.1279 244.913 72.7419 242.225 70.5579L238.403 75.1359C241.931 78.3279 246.383 79.8399 250.877 79.8399ZM281.565 79.9239C290.637 79.9239 297.231 73.0779 297.231 64.7199V64.6359C297.231 56.2779 290.721 49.5159 281.649 49.5159C272.577 49.5159 265.983 56.3619 265.983 64.7199V64.8039C265.983 73.1619 272.493 79.9239 281.565 79.9239ZM281.649 73.9599C276.441 73.9599 272.745 69.7599 272.745 64.7199V64.6359C272.745 59.5959 276.357 55.4799 281.565 55.4799C286.773 55.4799 290.469 59.6799 290.469 64.7199V64.8039C290.469 69.8439 286.857 73.9599 281.649 73.9599ZM302.968 79.4199H309.436V68.0379H323.464V62.1579H309.436V55.8999H325.354V50.0199H302.968V79.4199ZM337.377 79.4199H343.845V55.9839H352.791V50.0199H328.431V55.9839H337.377V79.4199Z" fill="#003E7B"/>
<path d="M185.906 96.6928H191.548C192.006 96.6928 192.367 96.3553 192.367 95.849C192.367 95.3426 192.006 95.0051 191.548 95.0051H184.966C184.435 95.0051 184.025 95.3668 184.025 95.8731V110.532C184.025 111.038 184.411 111.4 184.966 111.4H191.548C192.006 111.4 192.367 111.086 192.367 110.556C192.367 110.026 192.006 109.712 191.548 109.712H185.906V103.974H190.752C191.21 103.974 191.572 103.636 191.572 103.13C191.572 102.624 191.21 102.286 190.752 102.286H185.906V96.6928ZM196.889 103.516C196.889 101.925 198.07 100.912 199.372 100.912C200.023 100.912 200.529 101.153 201.012 101.442C201.18 101.539 201.373 101.635 201.59 101.635C202.024 101.635 202.386 101.274 202.386 100.84C202.386 100.454 202.193 100.237 201.856 100.02C201.205 99.6101 200.433 99.2726 199.372 99.2726C197.13 99.2726 195.057 100.864 195.057 103.516V107.349C195.057 110.002 197.13 111.593 199.372 111.593C200.433 111.593 201.229 111.255 201.856 110.845C202.193 110.628 202.386 110.411 202.386 110.026C202.386 109.592 202.024 109.23 201.59 109.23C201.373 109.23 201.18 109.326 201.012 109.423C200.529 109.688 199.999 109.953 199.372 109.953C198.07 109.953 196.889 108.941 196.889 107.349V103.516ZM209.048 99.2726C206.83 99.2726 204.781 100.936 204.781 103.468V107.398C204.781 109.953 206.83 111.593 209.048 111.593C211.266 111.593 213.316 109.857 213.316 107.398V103.468C213.316 101.008 211.266 99.2726 209.048 99.2726ZM211.483 107.398C211.483 108.82 210.398 109.953 209.048 109.953C207.698 109.953 206.613 108.868 206.613 107.398V103.468C206.613 102.021 207.698 100.912 209.048 100.912C210.398 100.912 211.483 102.021 211.483 103.468V107.398ZM220.125 100.912C220.896 100.912 221.378 101.129 221.957 101.394C222.174 101.491 222.343 101.587 222.56 101.587C223.018 101.587 223.38 101.225 223.38 100.792C223.38 100.382 223.138 100.116 222.753 99.9235C222.078 99.5619 221.161 99.2726 220.125 99.2726C218.051 99.2726 216.219 100.864 216.219 102.865C216.219 104.987 218.244 105.758 219.522 106.12C220.8 106.481 221.885 106.94 221.885 108.049C221.885 109.085 221.041 109.953 219.763 109.953C219.064 109.953 218.292 109.616 217.882 109.399C217.593 109.23 217.328 109.134 217.087 109.134C216.653 109.134 216.243 109.447 216.243 109.953C216.243 110.387 216.46 110.652 216.942 110.894C217.858 111.352 218.702 111.593 219.763 111.593C222.102 111.593 223.693 110.026 223.693 108C223.693 105.734 221.933 105.083 220.39 104.625C219.353 104.312 218.003 103.926 218.003 102.865C218.003 101.78 218.992 100.912 220.125 100.912ZM227.144 114.269C226.735 114.341 226.445 114.679 226.445 115.137C226.445 115.643 226.783 115.981 227.337 115.981C228.639 115.981 229.821 114.751 230.399 113.088L234.811 100.623C234.86 100.478 234.884 100.358 234.884 100.237C234.884 99.8271 234.474 99.4172 233.943 99.4172C233.485 99.4172 233.196 99.6583 233.076 100.044L230.544 107.88L230.255 108.844L229.965 107.88L227.434 100.044C227.313 99.6583 227.024 99.4172 226.566 99.4172C226.035 99.4172 225.626 99.8271 225.626 100.237C225.626 100.358 225.65 100.478 225.698 100.623L229.314 110.918L228.639 112.702C228.326 113.522 227.747 114.148 227.144 114.269ZM240.962 100.912C241.733 100.912 242.216 101.129 242.794 101.394C243.011 101.491 243.18 101.587 243.397 101.587C243.855 101.587 244.217 101.225 244.217 100.792C244.217 100.382 243.976 100.116 243.59 99.9235C242.915 99.5619 241.999 99.2726 240.962 99.2726C238.888 99.2726 237.056 100.864 237.056 102.865C237.056 104.987 239.081 105.758 240.359 106.12C241.637 106.481 242.722 106.94 242.722 108.049C242.722 109.085 241.878 109.953 240.6 109.953C239.901 109.953 239.13 109.616 238.72 109.399C238.43 109.23 238.165 109.134 237.924 109.134C237.49 109.134 237.08 109.447 237.08 109.953C237.08 110.387 237.297 110.652 237.779 110.894C238.696 111.352 239.539 111.593 240.6 111.593C242.939 111.593 244.53 110.026 244.53 108C244.53 105.734 242.77 105.083 241.227 104.625C240.19 104.312 238.84 103.926 238.84 102.865C238.84 101.78 239.829 100.912 240.962 100.912ZM246.587 101.057H248.226V108.434C248.226 110.291 249.552 111.593 251.336 111.593C252.277 111.593 253.217 111.279 253.217 110.604C253.217 110.146 252.976 109.809 252.494 109.809C252.156 109.809 251.746 110.002 251.433 110.002C250.685 110.002 250.059 109.375 250.059 108.434V101.057H252.349C252.831 101.057 253.145 100.767 253.145 100.261C253.145 99.7789 252.831 99.4655 252.349 99.4655H250.059V97.0062C250.059 96.5964 249.745 96.3312 249.311 96.3312C248.901 96.3312 248.564 96.6205 248.516 96.9821L248.226 99.4896H248.202L246.587 99.6583C246.273 99.6824 245.96 99.9477 245.96 100.358C245.96 100.792 246.273 101.057 246.587 101.057ZM262.876 105.927C263.455 105.927 263.841 105.517 263.841 104.987V103.395C263.841 100.96 261.767 99.2726 259.621 99.2726C257.476 99.2726 255.402 100.96 255.402 103.395V107.398C255.402 109.833 257.235 111.593 259.718 111.593C260.972 111.593 261.936 111.183 262.635 110.749C263.021 110.508 263.238 110.267 263.238 109.881C263.238 109.423 262.876 109.037 262.442 109.037C262.177 109.037 261.984 109.134 261.719 109.302C261.261 109.592 260.586 109.953 259.718 109.953C258.344 109.953 257.235 108.892 257.235 107.398V105.927H262.876ZM262.008 104.432H257.235V103.395C257.235 101.949 258.295 100.912 259.621 100.912C260.947 100.912 262.008 102.021 262.008 103.395V104.432ZM273.119 110.58C273.119 111.111 273.48 111.448 274.035 111.448C274.589 111.448 274.951 111.111 274.951 110.58V103.227C274.951 101.804 276.012 100.888 277.121 100.888C278.375 100.888 279.267 101.804 279.267 103.227V110.58C279.267 111.111 279.628 111.448 280.183 111.448C280.737 111.448 281.099 111.111 281.099 110.58V103.227C281.099 100.816 279.604 99.2726 277.579 99.2726C275.771 99.2726 274.975 100.599 274.396 100.599C274.131 100.599 273.89 100.309 273.721 100.165C273.119 99.6342 272.588 99.2726 271.576 99.2726C270.25 99.2726 269.454 100.261 268.996 100.261C268.49 100.261 268.369 99.4172 267.742 99.4172C267.332 99.4172 266.971 99.6583 266.971 100.116V110.58C266.971 111.111 267.332 111.448 267.887 111.448C268.441 111.448 268.803 111.111 268.803 110.58V103.227C268.803 101.804 269.912 100.888 271.069 100.888C272.202 100.888 273.119 101.852 273.119 103.227V110.58Z" fill="#00AFBA"/>
</g>
<defs>
<clipPath id="clip0_2_152">
<rect width="354.71" height="156.35" fill="white" transform="translate(0 0.399902)"/>
</clipPath>
</defs>
</svg>
