<svg width="355" height="158" viewBox="0 0 355 158" fill="none" xmlns="http://www.w3.org/2000/svg">
<g clip-path="url(#clip0_2_154)">
<path d="M90.73 73.5099C83.02 90.5099 117.44 86.7999 119.33 99.8999C117.56 84.8999 88.24 88.6299 90.73 73.5099ZM115.39 66.7499C112.911 64.1926 110.111 61.9674 107.06 60.1299C110.63 63.1299 112.06 66.1299 112.06 69.2299C113.18 69.6099 114.3 70.0299 115.45 70.4499C116 70.6599 116.15 70.0999 116.13 69.7599C116.13 68.6599 116.13 67.4999 115.39 66.7599V66.7499ZM65.69 134.75C69.69 143.03 78.69 146.75 80.69 146.88C70.37 139.24 58.9 115.22 70.07 79.3799C60.31 98.6299 61.1 125.25 65.69 134.82V134.75ZM101.86 47.3199C102.882 44.7711 104.277 42.3884 106 40.2499C101.58 41.2029 97.6176 43.6373 94.77 47.1499C81.19 25.5799 32.3 33.8099 32.3 67.3399C33.03 64.8799 37.12 58.9399 42.19 59.8299C42.13 77.7499 18.85 77.1299 16.05 73.9099C23.9 82.9099 30.58 82.5499 35.91 79.9699C29.47 90.8699 18.05 94.0499 7.99999 88.1299C9.19874 92.0357 11.37 95.5729 14.31 98.4099C21.79 105.48 31.2 103.63 36.79 94.9999C53.1 69.8699 61.31 62.7499 72.26 62.4199C40.17 72.0199 48.76 142.42 2.56999 105.57C0.817628 96.0642 -0.0427781 86.4156 -6.5919e-06 76.7499V36.3399C-0.00235191 35.5187 0.15818 34.7053 0.472298 33.9466C0.786416 33.1879 1.24788 32.499 1.82999 31.9199C2.3999 31.3384 3.07975 30.8761 3.82999 30.5599L75.82 0.749878L147.82 30.5599C148.572 30.8728 149.253 31.3355 149.82 31.9199C150.402 32.499 150.864 33.1879 151.178 33.9466C151.492 34.7053 151.652 35.5187 151.65 36.3399V76.7499C151.65 98.8099 147.65 118.14 139.65 135.13C136.008 142.945 131.496 150.325 126.2 157.13C115.13 157.13 62.45 117.63 87.62 90.6399C92.18 100.37 106 93.8899 116.83 105.3C122.35 112.96 130.26 110.08 134.95 105.11C138.72 101.11 139.15 94.8099 133.5 89.6999C127.36 84.6999 124.15 79.6999 120.67 71.9799C123.58 65.3799 115.67 60.1499 109.88 56.3099C108.6 53.4399 108.88 52.1799 109.44 50.4799C110.577 47.5712 112.141 44.8481 114.08 42.3999C109.134 43.4779 104.693 46.186 101.47 50.0899C101.38 49.1716 101.513 48.245 101.86 47.3899V47.3199Z" fill="#00C3D9"/>
<path d="M185.068 79.7699H206.194V77.7539H187.252V65.9519H204.094V63.9359H187.252V52.3859H205.984V50.3699H185.068V79.7699ZM213.205 79.7699H215.389V68.8079H223.327C229.501 68.8079 234.793 65.6579 234.793 59.4419V59.3579C234.793 53.6879 230.341 50.3699 223.873 50.3699H213.205V79.7699ZM215.389 66.7919V52.3859H223.705C228.955 52.3859 232.609 54.8219 232.609 59.4839V59.5679C232.609 63.9779 228.913 66.7919 223.453 66.7919H215.389Z" fill="#00C3D9"/>
<path d="M250.877 80.1899C257.219 80.1899 261.671 76.9139 261.671 71.0759V70.9919C261.671 65.8679 258.311 63.7679 252.347 62.1719C247.265 60.8279 246.005 60.2819 246.005 58.3079V58.2239C246.005 56.7539 247.265 55.6619 249.785 55.6619C252.305 55.6619 254.783 56.7539 257.429 58.5599L260.789 53.6879C257.765 51.2939 254.195 49.9499 249.869 49.9499C243.821 49.9499 239.579 53.4779 239.579 58.8119V58.8959C239.579 64.6919 243.359 66.4139 249.323 67.8839C254.237 69.1019 255.245 69.9839 255.245 71.6219V71.7059C255.245 73.4279 253.691 74.4779 251.003 74.4779C247.643 74.4779 244.913 73.0919 242.225 70.9079L238.403 75.4859C241.931 78.6779 246.383 80.1899 250.877 80.1899ZM281.565 80.2739C290.637 80.2739 297.231 73.4279 297.231 65.0699V64.9859C297.231 56.6279 290.721 49.8659 281.649 49.8659C272.577 49.8659 265.983 56.7119 265.983 65.0699V65.1539C265.983 73.5119 272.493 80.2739 281.565 80.2739ZM281.649 74.3099C276.441 74.3099 272.745 70.1099 272.745 65.0699V64.9859C272.745 59.9459 276.357 55.8299 281.565 55.8299C286.773 55.8299 290.469 60.0299 290.469 65.0699V65.1539C290.469 70.1939 286.857 74.3099 281.649 74.3099ZM302.968 79.7699H309.436V68.3879H323.464V62.5079H309.436V56.2499H325.354V50.3699H302.968V79.7699ZM337.377 79.7699H343.845V56.3339H352.791V50.3699H328.431V56.3339H337.377V79.7699Z" fill="#003E7B"/>
<path d="M185.906 97.0428H191.548C192.006 97.0428 192.367 96.7052 192.367 96.1989C192.367 95.6926 192.006 95.3551 191.548 95.3551H184.966C184.435 95.3551 184.025 95.7167 184.025 96.223V110.882C184.025 111.388 184.411 111.75 184.966 111.75H191.548C192.006 111.75 192.367 111.436 192.367 110.906C192.367 110.376 192.006 110.062 191.548 110.062H185.906V104.324H190.752C191.21 104.324 191.572 103.986 191.572 103.48C191.572 102.974 191.21 102.636 190.752 102.636H185.906V97.0428ZM203.591 111.099V95.3792C203.591 94.8488 203.23 94.5112 202.675 94.5112C202.121 94.5112 201.759 94.8488 201.759 95.3792V100.153C201.759 100.298 201.687 100.442 201.566 100.442C201.446 100.442 201.397 100.394 201.301 100.322C200.65 99.8395 200.047 99.6225 199.203 99.6225C196.985 99.6225 195.057 101.262 195.057 103.818V107.724C195.057 110.159 196.744 111.943 198.842 111.943C199.758 111.943 200.409 111.533 200.891 111.244C201.156 111.075 201.397 110.954 201.59 110.954C201.783 110.954 201.952 111.123 202.097 111.292C202.29 111.533 202.531 111.798 202.868 111.798C203.278 111.798 203.591 111.533 203.591 111.099ZM196.889 103.818C196.889 102.323 197.974 101.262 199.324 101.262C200.674 101.262 201.759 102.323 201.759 103.818V107.748C201.759 109.122 200.626 110.303 199.276 110.303C197.926 110.303 196.889 109.098 196.889 107.748V103.818ZM211.575 110.303C210.128 110.303 209.164 109.146 209.164 107.748V100.635C209.164 100.105 208.802 99.7672 208.248 99.7672C207.693 99.7672 207.331 100.105 207.331 100.635V107.748C207.331 110.183 208.995 111.943 210.972 111.943C211.936 111.943 212.611 111.533 213.118 111.244C213.383 111.075 213.6 110.954 213.793 110.954C214.01 110.954 214.154 111.123 214.323 111.316C214.54 111.557 214.757 111.822 215.095 111.822C215.505 111.822 215.818 111.533 215.818 111.099V100.635C215.818 100.105 215.456 99.7672 214.902 99.7672C214.347 99.7672 213.986 100.105 213.986 100.635V107.748C213.986 109.17 213.021 110.303 211.575 110.303ZM221.07 103.866C221.07 102.275 222.251 101.262 223.553 101.262C224.204 101.262 224.71 101.503 225.192 101.792C225.361 101.889 225.554 101.985 225.771 101.985C226.205 101.985 226.567 101.624 226.567 101.19C226.567 100.804 226.374 100.587 226.036 100.37C225.385 99.9601 224.614 99.6225 223.553 99.6225C221.311 99.6225 219.237 101.214 219.237 103.866V107.699C219.237 110.351 221.311 111.943 223.553 111.943C224.614 111.943 225.409 111.605 226.036 111.195C226.374 110.978 226.567 110.761 226.567 110.376C226.567 109.942 226.205 109.58 225.771 109.58C225.554 109.58 225.361 109.676 225.192 109.773C224.71 110.038 224.18 110.303 223.553 110.303C222.251 110.303 221.07 109.291 221.07 107.699V103.866ZM237.062 103.769C237.062 101.383 235.133 99.6225 232.867 99.6225C231.806 99.6225 230.769 100.008 230.118 100.346C229.757 100.539 229.468 100.804 229.468 101.214C229.468 101.648 229.805 102.034 230.287 102.034C230.528 102.034 230.818 101.889 231.011 101.792C231.541 101.527 232.144 101.262 232.867 101.262C234.241 101.262 235.23 102.443 235.23 103.769V104.782H232.915C230.528 104.782 228.672 105.939 228.672 108.254C228.672 110.472 230.311 111.943 232.481 111.943C233.325 111.943 233.88 111.629 234.41 111.316C234.651 111.171 234.844 111.027 235.085 111.027C235.302 111.027 235.399 111.171 235.567 111.364C235.76 111.605 236.001 111.846 236.315 111.846C236.749 111.846 237.062 111.605 237.062 111.147V103.769ZM232.915 106.277H235.23V108.182C235.23 109.532 234.169 110.303 232.843 110.303C231.493 110.303 230.48 109.58 230.48 108.254C230.48 106.952 231.517 106.277 232.915 106.277ZM239.735 101.407H241.375V108.784C241.375 110.641 242.701 111.943 244.485 111.943C245.425 111.943 246.365 111.629 246.365 110.954C246.365 110.496 246.124 110.159 245.642 110.159C245.305 110.159 244.895 110.351 244.581 110.351C243.834 110.351 243.207 109.725 243.207 108.784V101.407H245.497C245.98 101.407 246.293 101.117 246.293 100.611C246.293 100.129 245.98 99.8154 245.497 99.8154H243.207V97.3562C243.207 96.9463 242.894 96.6811 242.46 96.6811C242.05 96.6811 241.712 96.9704 241.664 97.3321L241.375 99.8395H241.351L239.735 100.008C239.422 100.032 239.108 100.298 239.108 100.707C239.108 101.141 239.422 101.407 239.735 101.407ZM250.769 100.635C250.769 100.105 250.407 99.7672 249.853 99.7672C249.298 99.7672 248.936 100.105 248.936 100.635V110.93C248.936 111.461 249.298 111.798 249.853 111.798C250.407 111.798 250.769 111.461 250.769 110.93V100.635ZM248.671 95.9096C248.671 96.6088 249.25 97.0669 249.853 97.0669C250.479 97.0669 251.034 96.6088 251.034 95.9096C251.034 95.2104 250.455 94.7523 249.853 94.7523C249.274 94.7523 248.671 95.2104 248.671 95.9096ZM258.516 99.6225C256.298 99.6225 254.248 101.286 254.248 103.818V107.748C254.248 110.303 256.298 111.943 258.516 111.943C260.734 111.943 262.783 110.207 262.783 107.748V103.818C262.783 101.358 260.734 99.6225 258.516 99.6225ZM260.951 107.748C260.951 109.17 259.866 110.303 258.516 110.303C257.166 110.303 256.081 109.218 256.081 107.748V103.818C256.081 102.371 257.166 101.262 258.516 101.262C259.866 101.262 260.951 102.371 260.951 103.818V107.748ZM268.05 103.794C268.05 102.347 269.038 101.262 270.461 101.262C271.859 101.262 272.872 102.371 272.872 103.794V110.93C272.872 111.461 273.233 111.798 273.788 111.798C274.342 111.798 274.704 111.461 274.704 110.93V103.794C274.704 101.31 272.944 99.6225 271.112 99.6225C270.075 99.6225 269.351 100.008 268.821 100.346C268.556 100.515 268.387 100.587 268.218 100.587C268.001 100.587 267.857 100.394 267.688 100.201C267.495 99.9601 267.278 99.7672 266.94 99.7672C266.531 99.7672 266.217 100.057 266.217 100.491V110.93C266.217 111.461 266.579 111.798 267.133 111.798C267.688 111.798 268.05 111.461 268.05 110.93V103.794Z" fill="#00C3D9"/>
</g>
<defs>
<clipPath id="clip0_2_154">
<rect width="354.71" height="156.35" fill="white" transform="translate(0 0.749878)"/>
</clipPath>
</defs>
</svg>
