<svg width="175" height="256" viewBox="0 0 175 256" fill="none" xmlns="http://www.w3.org/2000/svg">
<g clip-path="url(#clip0_2_150)">
<path d="M103.142 75.73C95.1419 93.4 130.842 89.53 132.812 103.12C130.972 87.52 100.552 91.43 103.142 75.73ZM128.722 68.73C126.147 66.0762 123.24 63.767 120.072 61.86C123.782 65.02 125.312 68.13 125.262 71.29C126.422 71.7 127.592 72.13 128.772 72.57C129.352 72.78 129.512 72.2 129.492 71.85C129.432 70.71 129.492 69.5 128.722 68.73ZM77.1519 139.35C81.2719 147.94 90.6719 151.79 92.6919 151.94C81.9919 144.01 70.0919 119.09 81.6919 81.94C71.5619 101.8 72.3919 129.42 77.1519 139.35ZM114.682 48.64C115.723 45.979 117.156 43.4883 118.932 41.25C114.348 42.2359 110.239 44.7629 107.292 48.41C93.2319 26.01 42.5619 34.55 42.5619 69.34C43.3219 66.79 47.5619 60.62 52.8319 61.55C52.7119 80.13 28.5619 79.49 25.6519 76.16C33.8019 85.5 40.7319 85.16 46.2619 82.44C39.5619 93.75 27.7219 97.05 17.3419 90.91C18.5864 94.9611 20.8403 98.6293 23.8919 101.57C31.6519 108.9 41.4119 106.98 47.2119 98.03C64.1019 71.96 72.6119 64.58 83.9719 64.25C50.6719 74.25 59.5919 147.25 11.6719 109.02C9.84683 99.1422 8.9529 89.1149 9.00191 79.07V37.17C8.99894 36.3172 9.16536 35.4724 9.49152 34.6844C9.81768 33.8965 10.2971 33.1812 10.9019 32.58C11.5045 31.9816 12.2178 31.5061 13.0019 31.18L87.6619 0.25L162.322 31.17C163.109 31.5009 163.825 31.9795 164.432 32.58C165.035 33.1828 165.512 33.8985 165.838 34.686C166.164 35.4736 166.332 36.3176 166.332 37.17V79.07C166.332 101.97 162.142 122.07 153.892 139.65C150.102 147.758 145.405 155.41 139.892 162.46C128.412 162.46 73.7519 121.46 99.8919 93.46C104.622 103.55 118.952 96.83 130.192 108.67C135.922 116.67 144.132 113.67 148.992 108.48C152.902 104.33 153.352 97.78 147.482 92.48C141.122 87.25 137.792 82.08 134.182 74.1C137.182 67.26 128.962 61.83 122.982 57.84C121.652 54.84 121.982 53.56 122.522 51.84C123.7 48.8234 125.322 45.9991 127.332 43.46C122.201 44.5849 117.598 47.4025 114.262 51.46C114.167 50.4997 114.311 49.531 114.682 48.64Z" fill="#0064B1"/>
<path d="M4.59945 218.88H25.7254V216.864H6.78345V205.062H23.6254V203.046H6.78345V191.496H25.5154V189.48H4.59945V218.88ZM32.7362 218.88H34.9202V207.918H42.8582C49.0322 207.918 54.3242 204.768 54.3242 198.552V198.468C54.3242 192.798 49.8722 189.48 43.4042 189.48H32.7362V218.88ZM34.9202 205.902V191.496H43.2362C48.4862 191.496 52.1402 193.932 52.1402 198.594V198.678C52.1402 203.088 48.4442 205.902 42.9842 205.902H34.9202Z" fill="#0064B1"/>
<path d="M70.4089 219.3C76.7509 219.3 81.2029 216.024 81.2029 210.186V210.102C81.2029 204.978 77.8429 202.878 71.8789 201.282C66.7969 199.938 65.5369 199.392 65.5369 197.418V197.334C65.5369 195.864 66.7969 194.772 69.3169 194.772C71.8369 194.772 74.3149 195.864 76.9609 197.67L80.3209 192.798C77.2969 190.404 73.7269 189.06 69.4009 189.06C63.3529 189.06 59.1109 192.588 59.1109 197.922V198.006C59.1109 203.802 62.8909 205.524 68.8549 206.994C73.7689 208.212 74.7769 209.094 74.7769 210.732V210.816C74.7769 212.538 73.2229 213.588 70.5349 213.588C67.1749 213.588 64.4449 212.202 61.7569 210.018L57.9349 214.596C61.4629 217.788 65.9149 219.3 70.4089 219.3ZM101.096 219.384C110.168 219.384 116.762 212.538 116.762 204.18V204.096C116.762 195.738 110.252 188.976 101.18 188.976C92.1081 188.976 85.5141 195.822 85.5141 204.18V204.264C85.5141 212.622 92.0241 219.384 101.096 219.384ZM101.18 213.42C95.9721 213.42 92.2761 209.22 92.2761 204.18V204.096C92.2761 199.056 95.8881 194.94 101.096 194.94C106.304 194.94 110 199.14 110 204.18V204.264C110 209.304 106.388 213.42 101.18 213.42ZM122.5 218.88H128.968V207.498H142.996V201.618H128.968V195.36H144.886V189.48H122.5V218.88ZM156.908 218.88H163.376V195.444H172.322V189.48H147.962V195.444H156.908V218.88Z" fill="#003E7B"/>
<path d="M10.9955 236.17C10.9955 234.218 9.6355 232.97 7.7155 232.97H5.1555C4.8035 232.97 4.5315 233.194 4.5315 233.546V243.274C4.5315 243.626 4.8035 243.85 5.1555 243.85H7.7155C9.6355 243.85 10.9955 242.602 10.9955 240.65V236.17ZM5.7795 234.09H7.7155C8.8035 234.09 9.7475 234.874 9.7475 236.17V240.65C9.7475 241.946 8.8035 242.73 7.7155 242.73H5.7795V234.09ZM18.3014 243.85C18.6054 243.85 18.8294 243.658 18.8294 243.29C18.8294 242.922 18.6054 242.73 18.3014 242.73H14.7014V233.514C14.7014 233.162 14.4454 232.938 14.0774 232.938C13.7094 232.938 13.4534 233.162 13.4534 233.514V243.274C13.4534 243.61 13.7094 243.85 14.0774 243.85H18.3014ZM21.0149 243.882C21.3989 243.882 21.6389 243.658 21.6389 243.306V239.658H23.1109C25.2069 239.658 26.5829 238.458 26.5829 236.314C26.5829 234.25 25.2229 232.97 23.1109 232.97H21.0149C20.6469 232.97 20.3909 233.194 20.3909 233.546V243.306C20.3909 243.658 20.6309 243.882 21.0149 243.882ZM25.3349 236.314C25.3349 237.674 24.5509 238.538 23.1109 238.538H21.6389V234.09H23.1109C24.5509 234.09 25.3349 234.954 25.3349 236.314ZM34.4516 240.362C34.7396 240.362 34.9636 240.122 34.9636 239.818C34.9636 239.514 34.7396 239.274 34.4516 239.274H31.5716C31.2836 239.274 31.0596 239.498 31.0596 239.818C31.0596 240.138 31.2836 240.362 31.5716 240.362H34.4516ZM46.9486 236.17C46.9486 234.218 45.5886 232.97 43.6686 232.97H41.1086C40.7566 232.97 40.4846 233.194 40.4846 233.546V243.274C40.4846 243.626 40.7566 243.85 41.1086 243.85H43.6686C45.5886 243.85 46.9486 242.602 46.9486 240.65V236.17ZM41.7326 234.09H43.6686C44.7566 234.09 45.7006 234.874 45.7006 236.17V240.65C45.7006 241.946 44.7566 242.73 43.6686 242.73H41.7326V234.09ZM54.4625 238.554C54.4625 236.97 53.1825 235.802 51.6785 235.802C50.9745 235.802 50.2865 236.058 49.8545 236.282C49.6145 236.41 49.4225 236.586 49.4225 236.858C49.4225 237.146 49.6465 237.402 49.9665 237.402C50.1265 237.402 50.3185 237.306 50.4465 237.242C50.7985 237.066 51.1985 236.89 51.6785 236.89C52.5905 236.89 53.2465 237.674 53.2465 238.554V239.226H51.7105C50.1265 239.226 48.8945 239.994 48.8945 241.53C48.8945 243.002 49.9825 243.978 51.4225 243.978C51.9825 243.978 52.3505 243.77 52.7025 243.562C52.8625 243.466 52.9905 243.37 53.1505 243.37C53.2945 243.37 53.3585 243.466 53.4705 243.594C53.5985 243.754 53.7585 243.914 53.9665 243.914C54.2545 243.914 54.4625 243.754 54.4625 243.45V238.554ZM51.7105 240.218H53.2465V241.482C53.2465 242.378 52.5425 242.89 51.6625 242.89C50.7665 242.89 50.0945 242.41 50.0945 241.53C50.0945 240.666 50.7825 240.218 51.7105 240.218ZM56.2364 236.986H57.3244V241.882C57.3244 243.114 58.2044 243.978 59.3884 243.978C60.0124 243.978 60.6364 243.77 60.6364 243.322C60.6364 243.018 60.4764 242.794 60.1564 242.794C59.9324 242.794 59.6604 242.922 59.4524 242.922C58.9564 242.922 58.5404 242.506 58.5404 241.882V236.986H60.0604C60.3804 236.986 60.5884 236.794 60.5884 236.458C60.5884 236.138 60.3804 235.93 60.0604 235.93H58.5404V234.298C58.5404 234.026 58.3324 233.85 58.0444 233.85C57.7724 233.85 57.5484 234.042 57.5164 234.282L57.3244 235.946H57.3084L56.2364 236.058C56.0284 236.074 55.8204 236.25 55.8204 236.522C55.8204 236.81 56.0284 236.986 56.2364 236.986ZM67.4625 238.554C67.4625 236.97 66.1825 235.802 64.6785 235.802C63.9745 235.802 63.2865 236.058 62.8545 236.282C62.6145 236.41 62.4225 236.586 62.4225 236.858C62.4225 237.146 62.6465 237.402 62.9665 237.402C63.1265 237.402 63.3185 237.306 63.4465 237.242C63.7985 237.066 64.1985 236.89 64.6785 236.89C65.5905 236.89 66.2465 237.674 66.2465 238.554V239.226H64.7105C63.1265 239.226 61.8945 239.994 61.8945 241.53C61.8945 243.002 62.9825 243.978 64.4225 243.978C64.9825 243.978 65.3505 243.77 65.7025 243.562C65.8625 243.466 65.9905 243.37 66.1505 243.37C66.2945 243.37 66.3585 243.466 66.4705 243.594C66.5985 243.754 66.7585 243.914 66.9665 243.914C67.2545 243.914 67.4625 243.754 67.4625 243.45V238.554ZM64.7105 240.218H66.2465V241.482C66.2465 242.378 65.5425 242.89 64.6625 242.89C63.7665 242.89 63.0945 242.41 63.0945 241.53C63.0945 240.666 63.7825 240.218 64.7105 240.218ZM78.442 243.85C78.746 243.85 78.97 243.658 78.97 243.29C78.97 242.922 78.746 242.73 78.442 242.73H74.842V233.514C74.842 233.162 74.586 232.938 74.218 232.938C73.85 232.938 73.594 233.162 73.594 233.514V243.274C73.594 243.61 73.85 243.85 74.218 243.85H78.442ZM82.9498 235.802C81.4778 235.802 80.1178 236.906 80.1178 238.586V241.194C80.1178 242.89 81.4778 243.978 82.9498 243.978C84.4218 243.978 85.7818 242.826 85.7818 241.194V238.586C85.7818 236.954 84.4218 235.802 82.9498 235.802ZM84.5658 241.194C84.5658 242.138 83.8458 242.89 82.9498 242.89C82.0538 242.89 81.3338 242.17 81.3338 241.194V238.586C81.3338 237.626 82.0538 236.89 82.9498 236.89C83.8458 236.89 84.5658 237.626 84.5658 238.586V241.194ZM90.3005 236.89C90.8125 236.89 91.1325 237.034 91.5165 237.21C91.6605 237.274 91.7725 237.338 91.9165 237.338C92.2205 237.338 92.4605 237.098 92.4605 236.81C92.4605 236.538 92.3005 236.362 92.0445 236.234C91.5965 235.994 90.9885 235.802 90.3005 235.802C88.9245 235.802 87.7085 236.858 87.7085 238.186C87.7085 239.594 89.0525 240.106 89.9005 240.346C90.7485 240.586 91.4685 240.89 91.4685 241.626C91.4685 242.314 90.9085 242.89 90.0605 242.89C89.5965 242.89 89.0845 242.666 88.8125 242.522C88.6205 242.41 88.4445 242.346 88.2845 242.346C87.9965 242.346 87.7245 242.554 87.7245 242.89C87.7245 243.178 87.8685 243.354 88.1885 243.514C88.7965 243.818 89.3565 243.978 90.0605 243.978C91.6125 243.978 92.6685 242.938 92.6685 241.594C92.6685 240.09 91.5005 239.658 90.4765 239.354C89.7885 239.146 88.8925 238.89 88.8925 238.186C88.8925 237.466 89.5485 236.89 90.3005 236.89ZM96.8005 236.89C97.3125 236.89 97.6325 237.034 98.0165 237.21C98.1605 237.274 98.2725 237.338 98.4165 237.338C98.7205 237.338 98.9605 237.098 98.9605 236.81C98.9605 236.538 98.8005 236.362 98.5445 236.234C98.0965 235.994 97.4885 235.802 96.8005 235.802C95.4245 235.802 94.2085 236.858 94.2085 238.186C94.2085 239.594 95.5525 240.106 96.4005 240.346C97.2485 240.586 97.9685 240.89 97.9685 241.626C97.9685 242.314 97.4085 242.89 96.5605 242.89C96.0965 242.89 95.5845 242.666 95.3125 242.522C95.1205 242.41 94.9445 242.346 94.7845 242.346C94.4965 242.346 94.2245 242.554 94.2245 242.89C94.2245 243.178 94.3685 243.354 94.6885 243.514C95.2965 243.818 95.8565 243.978 96.5605 243.978C98.1125 243.978 99.1685 242.938 99.1685 241.594C99.1685 240.09 98.0005 239.658 96.9765 239.354C96.2885 239.146 95.3925 238.89 95.3925 238.186C95.3925 237.466 96.0485 236.89 96.8005 236.89ZM105.515 243.882C105.899 243.882 106.139 243.658 106.139 243.306V239.658H107.611C109.707 239.658 111.083 238.458 111.083 236.314C111.083 234.25 109.723 232.97 107.611 232.97H105.515C105.147 232.97 104.891 233.194 104.891 233.546V243.306C104.891 243.658 105.131 243.882 105.515 243.882ZM109.835 236.314C109.835 237.674 109.051 238.538 107.611 238.538H106.139V234.09H107.611C109.051 234.09 109.835 234.954 109.835 236.314ZM114.121 238.634C114.121 237.514 114.873 236.954 115.673 236.954H115.897C116.249 236.954 116.489 236.746 116.489 236.378C116.489 236.01 116.233 235.818 115.897 235.818C115.433 235.818 115.177 235.978 114.681 236.298C114.537 236.394 114.393 236.506 114.281 236.506C114.137 236.506 114.041 236.378 113.929 236.25C113.801 236.09 113.641 235.898 113.401 235.898C113.161 235.898 112.905 236.058 112.905 236.362V243.306C112.905 243.658 113.145 243.882 113.513 243.882C113.881 243.882 114.121 243.658 114.121 243.306V238.634ZM122.703 240.218C123.087 240.218 123.343 239.946 123.343 239.594V238.538C123.343 236.922 121.967 235.802 120.543 235.802C119.119 235.802 117.743 236.922 117.743 238.538V241.194C117.743 242.81 118.959 243.978 120.607 243.978C121.439 243.978 122.079 243.706 122.543 243.418C122.799 243.258 122.943 243.098 122.943 242.842C122.943 242.538 122.703 242.282 122.415 242.282C122.239 242.282 122.111 242.346 121.935 242.458C121.631 242.65 121.183 242.89 120.607 242.89C119.695 242.89 118.959 242.186 118.959 241.194V240.218H122.703ZM122.127 239.226H118.959V238.538C118.959 237.578 119.663 236.89 120.543 236.89C121.423 236.89 122.127 237.626 122.127 238.538V239.226ZM127.757 243.882C128.141 243.882 128.333 243.674 128.445 243.37L130.781 236.682C130.813 236.586 130.829 236.522 130.829 236.442C130.829 236.154 130.557 235.898 130.205 235.898C129.901 235.898 129.709 236.058 129.629 236.314L127.949 241.498L127.757 242.138L127.565 241.498L125.885 236.314C125.805 236.058 125.613 235.898 125.309 235.898C124.957 235.898 124.685 236.154 124.685 236.442C124.685 236.522 124.701 236.586 124.733 236.682L127.069 243.37C127.181 243.674 127.373 243.882 127.757 243.882ZM137.265 240.218C137.649 240.218 137.905 239.946 137.905 239.594V238.538C137.905 236.922 136.529 235.802 135.105 235.802C133.681 235.802 132.305 236.922 132.305 238.538V241.194C132.305 242.81 133.521 243.978 135.169 243.978C136.001 243.978 136.641 243.706 137.105 243.418C137.361 243.258 137.505 243.098 137.505 242.842C137.505 242.538 137.265 242.282 136.977 242.282C136.801 242.282 136.673 242.346 136.497 242.458C136.193 242.65 135.745 242.89 135.169 242.89C134.257 242.89 133.521 242.186 133.521 241.194V240.218H137.265ZM136.689 239.226H133.521V238.538C133.521 237.578 134.225 236.89 135.105 236.89C135.985 236.89 136.689 237.626 136.689 238.538V239.226ZM141.198 238.57C141.198 237.61 141.854 236.89 142.798 236.89C143.726 236.89 144.398 237.626 144.398 238.57V243.306C144.398 243.658 144.638 243.882 145.006 243.882C145.374 243.882 145.614 243.658 145.614 243.306V238.57C145.614 236.922 144.446 235.802 143.23 235.802C142.542 235.802 142.062 236.058 141.71 236.282C141.534 236.394 141.422 236.442 141.31 236.442C141.166 236.442 141.07 236.314 140.958 236.186C140.83 236.026 140.686 235.898 140.462 235.898C140.19 235.898 139.982 236.09 139.982 236.378V243.306C139.982 243.658 140.222 243.882 140.59 243.882C140.958 243.882 141.198 243.658 141.198 243.306V238.57ZM147.424 236.986H148.512V241.882C148.512 243.114 149.392 243.978 150.576 243.978C151.2 243.978 151.824 243.77 151.824 243.322C151.824 243.018 151.664 242.794 151.344 242.794C151.12 242.794 150.848 242.922 150.64 242.922C150.144 242.922 149.728 242.506 149.728 241.882V236.986H151.248C151.568 236.986 151.776 236.794 151.776 236.458C151.776 236.138 151.568 235.93 151.248 235.93H149.728V234.298C149.728 234.026 149.52 233.85 149.232 233.85C148.96 233.85 148.736 234.042 148.704 234.282L148.512 235.946H148.496L147.424 236.058C147.216 236.074 147.008 236.25 147.008 236.522C147.008 236.81 147.216 236.986 147.424 236.986ZM154.746 236.474C154.746 236.122 154.506 235.898 154.138 235.898C153.77 235.898 153.53 236.122 153.53 236.474V243.306C153.53 243.658 153.77 243.882 154.138 243.882C154.506 243.882 154.746 243.658 154.746 243.306V236.474ZM153.354 233.338C153.354 233.802 153.738 234.106 154.138 234.106C154.554 234.106 154.922 233.802 154.922 233.338C154.922 232.874 154.538 232.57 154.138 232.57C153.754 232.57 153.354 232.874 153.354 233.338ZM159.887 235.802C158.415 235.802 157.055 236.906 157.055 238.586V241.194C157.055 242.89 158.415 243.978 159.887 243.978C161.359 243.978 162.719 242.826 162.719 241.194V238.586C162.719 236.954 161.359 235.802 159.887 235.802ZM161.503 241.194C161.503 242.138 160.783 242.89 159.887 242.89C158.991 242.89 158.271 242.17 158.271 241.194V238.586C158.271 237.626 158.991 236.89 159.887 236.89C160.783 236.89 161.503 237.626 161.503 238.586V241.194ZM166.214 238.57C166.214 237.61 166.87 236.89 167.814 236.89C168.742 236.89 169.414 237.626 169.414 238.57V243.306C169.414 243.658 169.654 243.882 170.022 243.882C170.39 243.882 170.63 243.658 170.63 243.306V238.57C170.63 236.922 169.462 235.802 168.246 235.802C167.558 235.802 167.078 236.058 166.726 236.282C166.55 236.394 166.438 236.442 166.326 236.442C166.182 236.442 166.086 236.314 165.974 236.186C165.846 236.026 165.702 235.898 165.478 235.898C165.206 235.898 164.998 236.09 164.998 236.378V243.306C164.998 243.658 165.238 243.882 165.606 243.882C165.974 243.882 166.214 243.658 166.214 243.306V238.57Z" fill="#0064B1"/>
</g>
<defs>
<clipPath id="clip0_2_150">
<rect width="174.21" height="255.75" fill="white" transform="translate(0 0.25)"/>
</clipPath>
</defs>
</svg>
