<svg width="175" height="256" viewBox="0 0 175 256" fill="none" xmlns="http://www.w3.org/2000/svg">
<g clip-path="url(#clip0_2_146)">
<rect width="174.21" height="255.75" fill="white"/>
<g clip-path="url(#clip1_2_146)">
<path d="M103.142 75.48C95.1419 93.15 130.842 89.28 132.812 102.87C130.972 87.27 100.552 91.18 103.142 75.48ZM128.722 68.48C126.147 65.8262 123.24 63.517 120.072 61.61C123.782 64.77 125.312 67.88 125.262 71.04C126.422 71.45 127.592 71.88 128.772 72.32C129.352 72.53 129.512 71.95 129.492 71.6C129.432 70.46 129.492 69.25 128.722 68.48ZM77.1519 139.1C81.2719 147.69 90.6719 151.54 92.6919 151.69C81.9919 143.76 70.0919 118.84 81.6919 81.69C71.5619 101.55 72.3919 129.17 77.1519 139.1ZM114.682 48.39C115.723 45.729 117.156 43.2383 118.932 41C114.348 41.9859 110.239 44.5129 107.292 48.16C93.2319 25.76 42.5619 34.3 42.5619 69.09C43.3219 66.54 47.5619 60.37 52.8319 61.3C52.7119 79.88 28.5619 79.24 25.6519 75.91C33.8019 85.25 40.7319 84.91 46.2619 82.19C39.5619 93.5 27.7219 96.8 17.3419 90.66C18.5864 94.7111 20.8403 98.3793 23.8919 101.32C31.6519 108.65 41.4119 106.73 47.2119 97.78C64.1019 71.71 72.6119 64.33 83.9719 64C50.6719 74 59.5919 147 11.6719 108.77C9.84683 98.8922 8.9529 88.8649 9.00191 78.82V36.92C8.99894 36.0672 9.16536 35.2224 9.49152 34.4344C9.81768 33.6465 10.2971 32.9312 10.9019 32.33C11.5045 31.7316 12.2178 31.2561 13.0019 30.93L87.6619 0L162.322 30.92C163.109 31.2509 163.825 31.7295 164.432 32.33C165.035 32.9328 165.512 33.6485 165.838 34.436C166.164 35.2236 166.332 36.0676 166.332 36.92V78.82C166.332 101.72 162.142 121.82 153.892 139.4C150.102 147.508 145.405 155.16 139.892 162.21C128.412 162.21 73.7519 121.21 99.8919 93.21C104.622 103.3 118.952 96.58 130.192 108.42C135.922 116.42 144.132 113.42 148.992 108.23C152.902 104.08 153.352 97.53 147.482 92.23C141.122 87 137.792 81.83 134.182 73.85C137.182 67.01 128.962 61.58 122.982 57.59C121.652 54.59 121.982 53.31 122.522 51.59C123.7 48.5734 125.322 45.7491 127.332 43.21C122.201 44.3349 117.598 47.1525 114.262 51.21C114.167 50.2497 114.311 49.281 114.682 48.39Z" fill="#54318E"/>
<path d="M4.59945 218.63H25.7254V216.614H6.78345V204.812H23.6254V202.796H6.78345V191.246H25.5154V189.23H4.59945V218.63ZM32.7362 218.63H34.9202V207.668H42.8582C49.0322 207.668 54.3242 204.518 54.3242 198.302V198.218C54.3242 192.548 49.8722 189.23 43.4042 189.23H32.7362V218.63ZM34.9202 205.652V191.246H43.2362C48.4862 191.246 52.1402 193.682 52.1402 198.344V198.428C52.1402 202.838 48.4442 205.652 42.9842 205.652H34.9202Z" fill="#54318E"/>
<path d="M70.4089 219.05C76.7509 219.05 81.2029 215.774 81.2029 209.936V209.852C81.2029 204.728 77.8429 202.628 71.8789 201.032C66.7969 199.688 65.5369 199.142 65.5369 197.168V197.084C65.5369 195.614 66.7969 194.522 69.3169 194.522C71.8369 194.522 74.3149 195.614 76.9609 197.42L80.3209 192.548C77.2969 190.154 73.7269 188.81 69.4009 188.81C63.3529 188.81 59.1109 192.338 59.1109 197.672V197.756C59.1109 203.552 62.8909 205.274 68.8549 206.744C73.7689 207.962 74.7769 208.844 74.7769 210.482V210.566C74.7769 212.288 73.2229 213.338 70.5349 213.338C67.1749 213.338 64.4449 211.952 61.7569 209.768L57.9349 214.346C61.4629 217.538 65.9149 219.05 70.4089 219.05ZM101.096 219.134C110.168 219.134 116.762 212.288 116.762 203.93V203.846C116.762 195.488 110.252 188.726 101.18 188.726C92.1081 188.726 85.5141 195.572 85.5141 203.93V204.014C85.5141 212.372 92.0241 219.134 101.096 219.134ZM101.18 213.17C95.9721 213.17 92.2761 208.97 92.2761 203.93V203.846C92.2761 198.806 95.8881 194.69 101.096 194.69C106.304 194.69 110 198.89 110 203.93V204.014C110 209.054 106.388 213.17 101.18 213.17ZM122.5 218.63H128.968V207.248H142.996V201.368H128.968V195.11H144.886V189.23H122.5V218.63ZM156.908 218.63H163.376V195.194H172.322V189.23H147.962V195.194H156.908V218.63Z" fill="#003E7B"/>
<path d="M27.5025 235.748C28.4669 235.748 29.359 236.134 29.8894 236.472C30.1305 236.616 30.3957 236.761 30.6851 236.761C31.1432 236.761 31.4807 236.351 31.4807 235.941C31.4807 235.555 31.2155 235.266 30.9021 235.073C29.9135 234.47 28.9009 234.061 27.5025 234.061C25.0433 234.061 22.7288 236.086 22.7288 238.666C22.7288 241.438 25.3568 242.475 26.8998 243.029C28.3223 243.536 29.9859 244.211 29.9859 246.091C29.9859 247.779 28.5634 249.057 26.9239 249.057C25.9836 249.057 25.2121 248.719 24.6093 248.406C24.1995 248.189 23.9584 247.996 23.5967 247.996C23.0904 247.996 22.7288 248.382 22.7288 248.888C22.7288 249.322 23.0663 249.636 23.6208 249.925C24.5611 250.407 25.5255 250.745 26.9239 250.745C29.7207 250.745 31.8423 248.575 31.8423 246.091C31.8423 243.005 29.5278 242.162 27.9124 241.535C26.4658 240.98 24.5852 240.401 24.5852 238.666C24.5852 237.05 25.9113 235.748 27.5025 235.748ZM33.8386 240.257H35.4781V247.634C35.4781 249.491 36.8041 250.793 38.5882 250.793C39.5285 250.793 40.4688 250.479 40.4688 249.804C40.4688 249.346 40.2277 249.009 39.7455 249.009C39.408 249.009 38.9981 249.202 38.6847 249.202C37.9373 249.202 37.3104 248.575 37.3104 247.634V240.257H39.6009C40.0831 240.257 40.3965 239.967 40.3965 239.461C40.3965 238.979 40.0831 238.666 39.6009 238.666H37.3104V236.206C37.3104 235.796 36.997 235.531 36.563 235.531C36.1531 235.531 35.8156 235.821 35.7674 236.182L35.4781 238.69H35.4539L33.8386 238.858C33.5251 238.883 33.2117 239.148 33.2117 239.558C33.2117 239.992 33.5251 240.257 33.8386 240.257ZM46.9215 238.473C44.7033 238.473 42.654 240.136 42.654 242.668V246.598C42.654 249.153 44.7033 250.793 46.9215 250.793C49.1396 250.793 51.1889 249.057 51.1889 246.598V242.668C51.1889 240.209 49.1396 238.473 46.9215 238.473ZM49.3566 246.598C49.3566 248.02 48.2716 249.153 46.9215 249.153C45.5713 249.153 44.4863 248.068 44.4863 246.598V242.668C44.4863 241.221 45.5713 240.112 46.9215 240.112C48.2716 240.112 49.3566 241.221 49.3566 242.668V246.598ZM56.5033 242.74C56.5033 241.052 57.6365 240.209 58.842 240.209H59.1795C59.7099 240.209 60.0716 239.895 60.0716 239.341C60.0716 238.786 59.6858 238.497 59.1795 238.497C58.4803 238.497 58.0946 238.738 57.3471 239.22C57.1302 239.365 56.9132 239.534 56.7444 239.534C56.5274 239.534 56.3827 239.341 56.214 239.148C56.0211 238.907 55.78 238.617 55.4183 238.617C55.0567 238.617 54.6709 238.858 54.6709 239.317V249.78C54.6709 250.311 55.0326 250.648 55.5871 250.648C56.1416 250.648 56.5033 250.311 56.5033 249.78V242.74ZM69.7792 242.62C69.7792 240.233 67.8504 238.473 65.5841 238.473C64.5233 238.473 63.4865 238.858 62.8356 239.196C62.4739 239.389 62.1846 239.654 62.1846 240.064C62.1846 240.498 62.5221 240.884 63.0043 240.884C63.2454 240.884 63.5348 240.739 63.7276 240.643C64.2581 240.377 64.8608 240.112 65.5841 240.112C66.9584 240.112 67.9469 241.294 67.9469 242.62V243.632H65.6323C63.2454 243.632 61.389 244.789 61.389 247.104C61.389 249.322 63.0284 250.793 65.1983 250.793C66.0422 250.793 66.5967 250.479 67.1271 250.166C67.3682 250.021 67.5611 249.877 67.8022 249.877C68.0192 249.877 68.1157 250.021 68.2844 250.214C68.4773 250.455 68.7184 250.696 69.0318 250.696C69.4658 250.696 69.7792 250.455 69.7792 249.997V242.62ZM65.6323 245.127H67.9469V247.032C67.9469 248.382 66.886 249.153 65.56 249.153C64.2098 249.153 63.1972 248.43 63.1972 247.104C63.1972 245.802 64.2339 245.127 65.6323 245.127ZM77.0768 238.545C75.0516 238.545 73.2675 240.04 73.2675 242.065V243.777C73.2675 244.814 73.822 245.826 74.4489 246.308V246.357C73.6291 246.694 73.1951 247.393 73.1951 248.068C73.1951 248.744 73.5809 249.37 74.1595 249.611C73.2434 249.949 72.3513 250.865 72.3513 252.191C72.3513 254.482 74.2319 255.639 77.2215 255.639C80.1147 255.639 82.0917 254.433 82.0917 252.047C82.0917 249.925 80.5487 248.768 78.2823 248.768H76.1848C75.4374 248.768 74.9311 248.358 74.9311 247.9C74.9311 247.562 75.0757 247.225 75.5579 247.008C75.5579 247.008 76.5705 247.225 77.0768 247.225C78.9333 247.225 80.9103 245.85 80.9103 243.68V242.065C80.9103 241.535 80.7416 240.787 80.4281 240.401L80.5246 240.426C81.4166 240.45 82.0435 240.233 82.4534 239.919C82.7427 239.702 82.8874 239.485 82.8874 239.1C82.8874 238.641 82.5498 238.28 82.0676 238.28C81.7542 238.28 81.5372 238.424 81.3443 238.569C80.9103 238.907 80.3558 239.148 79.9218 239.148C79.6325 239.148 79.3191 239.124 79.078 239.003C78.6681 238.786 78.0412 238.545 77.0768 238.545ZM75.0516 242.065C75.0516 240.908 75.9678 240.136 77.0768 240.136C78.1859 240.136 79.1262 240.908 79.1262 242.065V243.729C79.1262 244.838 78.0895 245.633 77.0768 245.633C76.0642 245.633 75.0516 244.862 75.0516 243.729V242.065ZM78.1377 250.311C79.5602 250.311 80.3076 250.938 80.3076 252.047C80.3076 253.397 78.9574 254 77.1733 254C75.3891 254 74.1354 253.493 74.1354 252.191C74.1354 250.938 74.9069 250.311 76.2089 250.311H78.1377ZM91.8732 245.127C92.4519 245.127 92.8376 244.717 92.8376 244.187V242.595C92.8376 240.16 90.7642 238.473 88.6184 238.473C86.4726 238.473 84.3991 240.16 84.3991 242.595V246.598C84.3991 249.033 86.2315 250.793 88.7148 250.793C89.9685 250.793 90.9329 250.383 91.6321 249.949C92.0179 249.708 92.2349 249.467 92.2349 249.081C92.2349 248.623 91.8732 248.237 91.4393 248.237C91.174 248.237 90.9812 248.334 90.716 248.502C90.2579 248.792 89.5828 249.153 88.7148 249.153C87.3406 249.153 86.2315 248.093 86.2315 246.598V245.127H91.8732ZM91.0053 243.632H86.2315V242.595C86.2315 241.149 87.2923 240.112 88.6184 240.112C89.9444 240.112 91.0053 241.221 91.0053 242.595V243.632ZM106.3 250.745C107.626 250.745 108.687 250.335 109.53 249.828C109.916 249.587 110.085 249.395 110.085 248.985C110.085 248.527 109.699 248.165 109.265 248.165C108.976 248.165 108.783 248.285 108.566 248.406C107.963 248.719 107.168 249.057 106.3 249.057C104.491 249.057 103.141 247.538 103.141 245.657V239.148C103.141 237.267 104.491 235.748 106.3 235.748C107.168 235.748 107.939 236.038 108.542 236.375C108.759 236.496 108.976 236.64 109.265 236.64C109.699 236.64 110.085 236.303 110.085 235.845C110.085 235.435 109.892 235.194 109.506 234.953C108.687 234.446 107.626 234.061 106.3 234.061C103.575 234.061 101.261 236.086 101.261 239.148V245.657C101.261 248.719 103.575 250.745 106.3 250.745ZM114.801 234.229C114.801 233.699 114.439 233.361 113.884 233.361C113.33 233.361 112.968 233.699 112.968 234.229V249.78C112.968 250.311 113.33 250.648 113.884 250.648C114.439 250.648 114.801 250.311 114.801 249.78V234.229ZM122.548 238.473C120.33 238.473 118.28 240.136 118.28 242.668V246.598C118.28 249.153 120.33 250.793 122.548 250.793C124.766 250.793 126.815 249.057 126.815 246.598V242.668C126.815 240.209 124.766 238.473 122.548 238.473ZM124.983 246.598C124.983 248.02 123.898 249.153 122.548 249.153C121.198 249.153 120.113 248.068 120.113 246.598V242.668C120.113 241.221 121.198 240.112 122.548 240.112C123.898 240.112 124.983 241.221 124.983 242.668V246.598ZM134.492 249.153C133.046 249.153 132.081 247.996 132.081 246.598V239.485C132.081 238.955 131.72 238.617 131.165 238.617C130.611 238.617 130.249 238.955 130.249 239.485V246.598C130.249 249.033 131.913 250.793 133.89 250.793C134.854 250.793 135.529 250.383 136.035 250.094C136.301 249.925 136.518 249.804 136.71 249.804C136.927 249.804 137.072 249.973 137.241 250.166C137.458 250.407 137.675 250.672 138.012 250.672C138.422 250.672 138.736 250.383 138.736 249.949V239.485C138.736 238.955 138.374 238.617 137.82 238.617C137.265 238.617 136.903 238.955 136.903 239.485V246.598C136.903 248.02 135.939 249.153 134.492 249.153ZM150.69 249.949V234.229C150.69 233.699 150.328 233.361 149.774 233.361C149.219 233.361 148.857 233.699 148.857 234.229V239.003C148.857 239.148 148.785 239.292 148.665 239.292C148.544 239.292 148.496 239.244 148.399 239.172C147.748 238.69 147.146 238.473 146.302 238.473C144.084 238.473 142.155 240.112 142.155 242.668V246.574C142.155 249.009 143.843 250.793 145.94 250.793C146.856 250.793 147.507 250.383 147.989 250.094C148.255 249.925 148.496 249.804 148.689 249.804C148.882 249.804 149.05 249.973 149.195 250.142C149.388 250.383 149.629 250.648 149.966 250.648C150.376 250.648 150.69 250.383 150.69 249.949ZM143.987 242.668C143.987 241.173 145.072 240.112 146.422 240.112C147.772 240.112 148.857 241.173 148.857 242.668V246.598C148.857 247.972 147.724 249.153 146.374 249.153C145.024 249.153 143.987 247.948 143.987 246.598V242.668Z" fill="#54318E"/>
</g>
</g>
<defs>
<clipPath id="clip0_2_146">
<rect width="174.21" height="255.75" fill="white"/>
</clipPath>
<clipPath id="clip1_2_146">
<rect width="174.21" height="255.75" fill="white"/>
</clipPath>
</defs>
</svg>
