<svg width="175" height="256" viewBox="0 0 175 256" fill="none" xmlns="http://www.w3.org/2000/svg">
<g clip-path="url(#clip0_2_155)">
<path d="M103.142 75.48C95.1419 93.15 130.842 89.28 132.812 102.87C130.972 87.27 100.552 91.18 103.142 75.48ZM128.722 68.48C126.147 65.8262 123.24 63.517 120.072 61.61C123.782 64.77 125.312 67.88 125.262 71.04C126.422 71.45 127.592 71.88 128.772 72.32C129.352 72.53 129.512 71.95 129.492 71.6C129.432 70.46 129.492 69.25 128.722 68.48ZM77.1519 139.1C81.2719 147.69 90.6719 151.54 92.6919 151.69C81.9919 143.76 70.0919 118.84 81.6919 81.69C71.5619 101.55 72.3919 129.17 77.1519 139.1ZM114.682 48.39C115.723 45.729 117.156 43.2383 118.932 41C114.348 41.9859 110.239 44.5129 107.292 48.16C93.2319 25.76 42.5619 34.3 42.5619 69.09C43.3219 66.54 47.5619 60.37 52.8319 61.3C52.7119 79.88 28.5619 79.24 25.6519 75.91C33.8019 85.25 40.7319 84.91 46.2619 82.19C39.5619 93.5 27.7219 96.8 17.3419 90.66C18.5864 94.7111 20.8403 98.3793 23.8919 101.32C31.6519 108.65 41.4119 106.73 47.2119 97.78C64.1019 71.71 72.6119 64.33 83.9719 64C50.6719 74 59.5919 147 11.6719 108.77C9.84683 98.8922 8.9529 88.8649 9.00191 78.82V36.92C8.99894 36.0672 9.16536 35.2224 9.49152 34.4344C9.81768 33.6465 10.2971 32.9312 10.9019 32.33C11.5045 31.7316 12.2178 31.2561 13.0019 30.93L87.6619 0L162.322 30.92C163.109 31.2509 163.825 31.7295 164.432 32.33C165.035 32.9328 165.512 33.6485 165.838 34.436C166.164 35.2236 166.332 36.0676 166.332 36.92V78.82C166.332 101.72 162.142 121.82 153.892 139.4C150.102 147.508 145.405 155.16 139.892 162.21C128.412 162.21 73.7519 121.21 99.8919 93.21C104.622 103.3 118.952 96.58 130.192 108.42C135.922 116.42 144.132 113.42 148.992 108.23C152.902 104.08 153.352 97.53 147.482 92.23C141.122 87 137.792 81.83 134.182 73.85C137.182 67.01 128.962 61.58 122.982 57.59C121.652 54.59 121.982 53.31 122.522 51.59C123.7 48.5734 125.322 45.7491 127.332 43.21C122.201 44.3349 117.598 47.1525 114.262 51.21C114.167 50.2497 114.311 49.281 114.682 48.39Z" fill="#00C3D9"/>
<path d="M4.59945 218.63H25.7254V216.614H6.78345V204.812H23.6254V202.796H6.78345V191.246H25.5154V189.23H4.59945V218.63ZM32.7362 218.63H34.9202V207.668H42.8582C49.0322 207.668 54.3242 204.518 54.3242 198.302V198.218C54.3242 192.548 49.8722 189.23 43.4042 189.23H32.7362V218.63ZM34.9202 205.652V191.246H43.2362C48.4862 191.246 52.1402 193.682 52.1402 198.344V198.428C52.1402 202.838 48.4442 205.652 42.9842 205.652H34.9202Z" fill="#00C3D9"/>
<path d="M70.4089 219.05C76.7509 219.05 81.2029 215.774 81.2029 209.936V209.852C81.2029 204.728 77.8429 202.628 71.8789 201.032C66.7969 199.688 65.5369 199.142 65.5369 197.168V197.084C65.5369 195.614 66.7969 194.522 69.3169 194.522C71.8369 194.522 74.3149 195.614 76.9609 197.42L80.3209 192.548C77.2969 190.154 73.7269 188.81 69.4009 188.81C63.3529 188.81 59.1109 192.338 59.1109 197.672V197.756C59.1109 203.552 62.8909 205.274 68.8549 206.744C73.7689 207.962 74.7769 208.844 74.7769 210.482V210.566C74.7769 212.288 73.2229 213.338 70.5349 213.338C67.1749 213.338 64.4449 211.952 61.7569 209.768L57.9349 214.346C61.4629 217.538 65.9149 219.05 70.4089 219.05ZM101.096 219.134C110.168 219.134 116.762 212.288 116.762 203.93V203.846C116.762 195.488 110.252 188.726 101.18 188.726C92.1081 188.726 85.5141 195.572 85.5141 203.93V204.014C85.5141 212.372 92.0241 219.134 101.096 219.134ZM101.18 213.17C95.9721 213.17 92.2761 208.97 92.2761 203.93V203.846C92.2761 198.806 95.8881 194.69 101.096 194.69C106.304 194.69 110 198.89 110 203.93V204.014C110 209.054 106.388 213.17 101.18 213.17ZM122.5 218.63H128.968V207.248H142.996V201.368H128.968V195.11H144.886V189.23H122.5V218.63ZM156.908 218.63H163.376V195.194H172.322V189.23H147.962V195.194H156.908V218.63Z" fill="#003E7B"/>
<path d="M44.1629 235.893H49.8047C50.2628 235.893 50.6244 235.555 50.6244 235.049C50.6244 234.543 50.2628 234.205 49.8047 234.205H43.2226C42.6922 234.205 42.2824 234.567 42.2824 235.073V249.732C42.2824 250.238 42.6681 250.6 43.2226 250.6H49.8047C50.2628 250.6 50.6244 250.287 50.6244 249.756C50.6244 249.226 50.2628 248.912 49.8047 248.912H44.1629V243.174H49.009C49.4671 243.174 49.8288 242.837 49.8288 242.33C49.8288 241.824 49.4671 241.486 49.009 241.486H44.1629V235.893ZM61.8486 249.949V234.229C61.8486 233.699 61.4869 233.361 60.9324 233.361C60.3779 233.361 60.0162 233.699 60.0162 234.229V239.003C60.0162 239.148 59.9439 239.292 59.8233 239.292C59.7028 239.292 59.6546 239.244 59.5581 239.172C58.9071 238.69 58.3044 238.473 57.4605 238.473C55.2424 238.473 53.3136 240.112 53.3136 242.668V246.574C53.3136 249.009 55.0013 250.793 57.0989 250.793C58.0151 250.793 58.666 250.383 59.1482 250.094C59.4135 249.925 59.6546 249.804 59.8474 249.804C60.0403 249.804 60.2091 249.973 60.3537 250.142C60.5466 250.383 60.7877 250.648 61.1253 250.648C61.5351 250.648 61.8486 250.383 61.8486 249.949ZM55.146 242.668C55.146 241.173 56.2309 240.112 57.5811 240.112C58.9313 240.112 60.0162 241.173 60.0162 242.668V246.598C60.0162 247.972 58.883 249.153 57.5329 249.153C56.1827 249.153 55.146 247.948 55.146 246.598V242.668ZM69.8318 249.153C68.3852 249.153 67.4208 247.996 67.4208 246.598V239.485C67.4208 238.955 67.0591 238.617 66.5046 238.617C65.9501 238.617 65.5884 238.955 65.5884 239.485V246.598C65.5884 249.033 67.252 250.793 69.229 250.793C70.1934 250.793 70.8685 250.383 71.3748 250.094C71.64 249.925 71.857 249.804 72.0499 249.804C72.2669 249.804 72.4116 249.973 72.5803 250.166C72.7973 250.407 73.0143 250.672 73.3519 250.672C73.7617 250.672 74.0752 250.383 74.0752 249.949V239.485C74.0752 238.955 73.7135 238.617 73.159 238.617C72.6044 238.617 72.2428 238.955 72.2428 239.485V246.598C72.2428 248.02 71.2784 249.153 69.8318 249.153ZM79.3266 242.716C79.3266 241.125 80.508 240.112 81.8099 240.112C82.4609 240.112 82.9672 240.353 83.4494 240.643C83.6182 240.739 83.8111 240.835 84.0281 240.835C84.462 240.835 84.8237 240.474 84.8237 240.04C84.8237 239.654 84.6308 239.437 84.2933 239.22C83.6423 238.81 82.8708 238.473 81.8099 238.473C79.5677 238.473 77.4943 240.064 77.4943 242.716V246.549C77.4943 249.202 79.5677 250.793 81.8099 250.793C82.8708 250.793 83.6664 250.455 84.2933 250.045C84.6308 249.828 84.8237 249.611 84.8237 249.226C84.8237 248.792 84.462 248.43 84.0281 248.43C83.8111 248.43 83.6182 248.527 83.4494 248.623C82.9672 248.888 82.4368 249.153 81.8099 249.153C80.508 249.153 79.3266 248.141 79.3266 246.549V242.716ZM95.3193 242.62C95.3193 240.233 93.3905 238.473 91.1241 238.473C90.0633 238.473 89.0266 238.858 88.3756 239.196C88.0139 239.389 87.7246 239.654 87.7246 240.064C87.7246 240.498 88.0622 240.884 88.5444 240.884C88.7855 240.884 89.0748 240.739 89.2677 240.643C89.7981 240.377 90.4008 240.112 91.1241 240.112C92.4984 240.112 93.4869 241.294 93.4869 242.62V243.632H91.1724C88.7855 243.632 86.929 244.789 86.929 247.104C86.929 249.322 88.5685 250.793 90.7384 250.793C91.5822 250.793 92.1368 250.479 92.6672 250.166C92.9083 250.021 93.1012 249.877 93.3423 249.877C93.5592 249.877 93.6557 250.021 93.8245 250.214C94.0173 250.455 94.2584 250.696 94.5719 250.696C95.0058 250.696 95.3193 250.455 95.3193 249.997V242.62ZM91.1724 245.127H93.4869V247.032C93.4869 248.382 92.4261 249.153 91.1 249.153C89.7499 249.153 88.7372 248.43 88.7372 247.104C88.7372 245.802 89.774 245.127 91.1724 245.127ZM97.9923 240.257H99.6318V247.634C99.6318 249.491 100.958 250.793 102.742 250.793C103.682 250.793 104.623 250.479 104.623 249.804C104.623 249.346 104.381 249.009 103.899 249.009C103.562 249.009 103.152 249.202 102.838 249.202C102.091 249.202 101.464 248.575 101.464 247.634V240.257H103.755C104.237 240.257 104.55 239.967 104.55 239.461C104.55 238.979 104.237 238.666 103.755 238.666H101.464V236.206C101.464 235.796 101.151 235.531 100.717 235.531C100.307 235.531 99.9693 235.821 99.9211 236.182L99.6318 238.69H99.6076L97.9923 238.858C97.6788 238.883 97.3654 239.148 97.3654 239.558C97.3654 239.992 97.6788 240.257 97.9923 240.257ZM109.026 239.485C109.026 238.955 108.664 238.617 108.11 238.617C107.555 238.617 107.193 238.955 107.193 239.485V249.78C107.193 250.311 107.555 250.648 108.11 250.648C108.664 250.648 109.026 250.311 109.026 249.78V239.485ZM106.928 234.76C106.928 235.459 107.507 235.917 108.11 235.917C108.736 235.917 109.291 235.459 109.291 234.76C109.291 234.061 108.712 233.602 108.11 233.602C107.531 233.602 106.928 234.061 106.928 234.76ZM116.773 238.473C114.555 238.473 112.506 240.136 112.506 242.668V246.598C112.506 249.153 114.555 250.793 116.773 250.793C118.991 250.793 121.04 249.057 121.04 246.598V242.668C121.04 240.209 118.991 238.473 116.773 238.473ZM119.208 246.598C119.208 248.02 118.123 249.153 116.773 249.153C115.423 249.153 114.338 248.068 114.338 246.598V242.668C114.338 241.221 115.423 240.112 116.773 240.112C118.123 240.112 119.208 241.221 119.208 242.668V246.598ZM126.307 242.644C126.307 241.197 127.295 240.112 128.718 240.112C130.116 240.112 131.129 241.221 131.129 242.644V249.78C131.129 250.311 131.49 250.648 132.045 250.648C132.599 250.648 132.961 250.311 132.961 249.78V242.644C132.961 240.16 131.201 238.473 129.369 238.473C128.332 238.473 127.609 238.858 127.078 239.196C126.813 239.365 126.644 239.437 126.475 239.437C126.258 239.437 126.114 239.244 125.945 239.051C125.752 238.81 125.535 238.617 125.198 238.617C124.788 238.617 124.474 238.907 124.474 239.341V249.78C124.474 250.311 124.836 250.648 125.39 250.648C125.945 250.648 126.307 250.311 126.307 249.78V242.644Z" fill="#00C3D9"/>
</g>
<defs>
<clipPath id="clip0_2_155">
<rect width="174.21" height="255.75" fill="white"/>
</clipPath>
</defs>
</svg>
