<svg width="175" height="256" viewBox="0 0 175 256" fill="none" xmlns="http://www.w3.org/2000/svg">
<g clip-path="url(#clip0_2_153)">
<path d="M103.142 75.48C95.1419 93.15 130.842 89.28 132.812 102.87C130.972 87.27 100.552 91.18 103.142 75.48ZM128.722 68.48C126.147 65.8262 123.24 63.517 120.072 61.61C123.782 64.77 125.312 67.88 125.262 71.04C126.422 71.45 127.592 71.88 128.772 72.32C129.352 72.53 129.512 71.95 129.492 71.6C129.432 70.46 129.492 69.25 128.722 68.48ZM77.1519 139.1C81.2719 147.69 90.6719 151.54 92.6919 151.69C81.9919 143.76 70.0919 118.84 81.6919 81.69C71.5619 101.55 72.3919 129.17 77.1519 139.1ZM114.682 48.39C115.723 45.729 117.156 43.2383 118.932 41C114.348 41.9859 110.239 44.5129 107.292 48.16C93.2319 25.76 42.5619 34.3 42.5619 69.09C43.3219 66.54 47.5619 60.37 52.8319 61.3C52.7119 79.88 28.5619 79.24 25.6519 75.91C33.8019 85.25 40.7319 84.91 46.2619 82.19C39.5619 93.5 27.7219 96.8 17.3419 90.66C18.5864 94.7111 20.8403 98.3793 23.8919 101.32C31.6519 108.65 41.4119 106.73 47.2119 97.78C64.1019 71.71 72.6119 64.33 83.9719 64C50.6719 74 59.5919 147 11.6719 108.77C9.84683 98.8922 8.9529 88.8649 9.00191 78.82V36.92C8.99894 36.0672 9.16536 35.2224 9.49152 34.4344C9.81768 33.6465 10.2971 32.9312 10.9019 32.33C11.5045 31.7316 12.2178 31.2561 13.0019 30.93L87.6619 0L162.322 30.92C163.109 31.2509 163.825 31.7295 164.432 32.33C165.035 32.9328 165.512 33.6485 165.838 34.436C166.164 35.2236 166.332 36.0676 166.332 36.92V78.82C166.332 101.72 162.142 121.82 153.892 139.4C150.102 147.508 145.405 155.16 139.892 162.21C128.412 162.21 73.7519 121.21 99.8919 93.21C104.622 103.3 118.952 96.58 130.192 108.42C135.922 116.42 144.132 113.42 148.992 108.23C152.902 104.08 153.352 97.53 147.482 92.23C141.122 87 137.792 81.83 134.182 73.85C137.182 67.01 128.962 61.58 122.982 57.59C121.652 54.59 121.982 53.31 122.522 51.59C123.7 48.5734 125.322 45.7491 127.332 43.21C122.201 44.3349 117.598 47.1525 114.262 51.21C114.167 50.2497 114.311 49.281 114.682 48.39Z" fill="#00AFBA"/>
<path d="M4.59945 218.63H25.7254V216.614H6.78345V204.812H23.6254V202.796H6.78345V191.246H25.5154V189.23H4.59945V218.63ZM32.7362 218.63H34.9202V207.668H42.8582C49.0322 207.668 54.3242 204.518 54.3242 198.302V198.218C54.3242 192.548 49.8722 189.23 43.4042 189.23H32.7362V218.63ZM34.9202 205.652V191.246H43.2362C48.4862 191.246 52.1402 193.682 52.1402 198.344V198.428C52.1402 202.838 48.4442 205.652 42.9842 205.652H34.9202Z" fill="#00AFBA"/>
<path d="M70.4089 219.05C76.7509 219.05 81.2029 215.774 81.2029 209.936V209.852C81.2029 204.728 77.8429 202.628 71.8789 201.032C66.7969 199.688 65.5369 199.142 65.5369 197.168V197.084C65.5369 195.614 66.7969 194.522 69.3169 194.522C71.8369 194.522 74.3149 195.614 76.9609 197.42L80.3209 192.548C77.2969 190.154 73.7269 188.81 69.4009 188.81C63.3529 188.81 59.1109 192.338 59.1109 197.672V197.756C59.1109 203.552 62.8909 205.274 68.8549 206.744C73.7689 207.962 74.7769 208.844 74.7769 210.482V210.566C74.7769 212.288 73.2229 213.338 70.5349 213.338C67.1749 213.338 64.4449 211.952 61.7569 209.768L57.9349 214.346C61.4629 217.538 65.9149 219.05 70.4089 219.05ZM101.096 219.134C110.168 219.134 116.762 212.288 116.762 203.93V203.846C116.762 195.488 110.252 188.726 101.18 188.726C92.1081 188.726 85.5141 195.572 85.5141 203.93V204.014C85.5141 212.372 92.0241 219.134 101.096 219.134ZM101.18 213.17C95.9721 213.17 92.2761 208.97 92.2761 203.93V203.846C92.2761 198.806 95.8881 194.69 101.096 194.69C106.304 194.69 110 198.89 110 203.93V204.014C110 209.054 106.388 213.17 101.18 213.17ZM122.5 218.63H128.968V207.248H142.996V201.368H128.968V195.11H144.886V189.23H122.5V218.63ZM156.908 218.63H163.376V195.194H172.322V189.23H147.962V195.194H156.908V218.63Z" fill="#003E7B"/>
<path d="M40.9844 235.893H46.6261C47.0842 235.893 47.4458 235.555 47.4458 235.049C47.4458 234.543 47.0842 234.205 46.6261 234.205H40.0441C39.5137 234.205 39.1038 234.567 39.1038 235.073V249.732C39.1038 250.238 39.4895 250.6 40.0441 250.6H46.6261C47.0842 250.6 47.4458 250.287 47.4458 249.756C47.4458 249.226 47.0842 248.912 46.6261 248.912H40.9844V243.174H45.8305C46.2886 243.174 46.6502 242.837 46.6502 242.33C46.6502 241.824 46.2886 241.486 45.8305 241.486H40.9844V235.893ZM51.9674 242.716C51.9674 241.125 53.1488 240.112 54.4507 240.112C55.1017 240.112 55.608 240.353 56.0902 240.643C56.259 240.739 56.4519 240.835 56.6689 240.835C57.1028 240.835 57.4645 240.474 57.4645 240.04C57.4645 239.654 57.2716 239.437 56.9341 239.22C56.2831 238.81 55.5116 238.473 54.4507 238.473C52.2085 238.473 50.1351 240.064 50.1351 242.716V246.549C50.1351 249.202 52.2085 250.793 54.4507 250.793C55.5116 250.793 56.3072 250.455 56.9341 250.045C57.2716 249.828 57.4645 249.611 57.4645 249.226C57.4645 248.792 57.1028 248.43 56.6689 248.43C56.4519 248.43 56.259 248.527 56.0902 248.623C55.608 248.888 55.0776 249.153 54.4507 249.153C53.1488 249.153 51.9674 248.141 51.9674 246.549V242.716ZM64.1266 238.473C61.9085 238.473 59.8591 240.136 59.8591 242.668V246.598C59.8591 249.153 61.9085 250.793 64.1266 250.793C66.3447 250.793 68.394 249.057 68.394 246.598V242.668C68.394 240.209 66.3447 238.473 64.1266 238.473ZM66.5617 246.598C66.5617 248.02 65.4767 249.153 64.1266 249.153C62.7764 249.153 61.6915 248.068 61.6915 246.598V242.668C61.6915 241.221 62.7764 240.112 64.1266 240.112C65.4767 240.112 66.5617 241.221 66.5617 242.668V246.598ZM75.2032 240.112C75.9748 240.112 76.457 240.329 77.0356 240.594C77.2526 240.691 77.4214 240.787 77.6384 240.787C78.0964 240.787 78.4581 240.426 78.4581 239.992C78.4581 239.582 78.217 239.316 77.8312 239.124C77.1562 238.762 76.24 238.473 75.2032 238.473C73.1298 238.473 71.2974 240.064 71.2974 242.065C71.2974 244.187 73.3227 244.958 74.6005 245.32C75.8783 245.682 76.9633 246.14 76.9633 247.249C76.9633 248.285 76.1194 249.153 74.8416 249.153C74.1424 249.153 73.3709 248.816 72.961 248.599C72.6717 248.43 72.4065 248.334 72.1654 248.334C71.7314 248.334 71.3215 248.647 71.3215 249.153C71.3215 249.587 71.5385 249.853 72.0207 250.094C72.9369 250.552 73.7808 250.793 74.8416 250.793C77.1803 250.793 78.7715 249.226 78.7715 247.2C78.7715 244.934 77.0115 244.283 75.4685 243.825C74.4317 243.512 73.0816 243.126 73.0816 242.065C73.0816 240.98 74.0701 240.112 75.2032 240.112ZM82.223 253.469C81.8131 253.541 81.5238 253.879 81.5238 254.337C81.5238 254.843 81.8614 255.181 82.4159 255.181C83.7178 255.181 84.8992 253.951 85.4779 252.288L89.89 239.823C89.9382 239.678 89.9623 239.558 89.9623 239.437C89.9623 239.027 89.5525 238.617 89.022 238.617C88.5639 238.617 88.2746 238.858 88.1541 239.244L85.6225 247.08L85.3332 248.044L85.0439 247.08L82.5123 239.244C82.3918 238.858 82.1025 238.617 81.6444 238.617C81.114 238.617 80.7041 239.027 80.7041 239.437C80.7041 239.558 80.7282 239.678 80.7764 239.823L84.3929 250.118L83.7178 251.902C83.4044 252.722 82.8258 253.349 82.223 253.469ZM96.0405 240.112C96.812 240.112 97.2942 240.329 97.8729 240.594C98.0898 240.691 98.2586 240.787 98.4756 240.787C98.9337 240.787 99.2953 240.426 99.2953 239.992C99.2953 239.582 99.0542 239.316 98.6685 239.124C97.9934 238.762 97.0772 238.473 96.0405 238.473C93.967 238.473 92.1347 240.064 92.1347 242.065C92.1347 244.187 94.1599 244.958 95.4377 245.32C96.7156 245.682 97.8005 246.14 97.8005 247.249C97.8005 248.285 96.9567 249.153 95.6788 249.153C94.9797 249.153 94.2081 248.816 93.7983 248.599C93.5089 248.43 93.2437 248.334 93.0026 248.334C92.5687 248.334 92.1588 248.647 92.1588 249.153C92.1588 249.587 92.3758 249.853 92.858 250.094C93.7742 250.552 94.618 250.793 95.6788 250.793C98.0175 250.793 99.6088 249.226 99.6088 247.2C99.6088 244.934 97.8487 244.283 96.3057 243.825C95.269 243.512 93.9188 243.126 93.9188 242.065C93.9188 240.98 94.9073 240.112 96.0405 240.112ZM101.665 240.257H103.305V247.634C103.305 249.491 104.631 250.793 106.415 250.793C107.355 250.793 108.296 250.479 108.296 249.804C108.296 249.346 108.054 249.009 107.572 249.009C107.235 249.009 106.825 249.202 106.511 249.202C105.764 249.202 105.137 248.575 105.137 247.634V240.257H107.428C107.91 240.257 108.223 239.967 108.223 239.461C108.223 238.979 107.91 238.666 107.428 238.666H105.137V236.206C105.137 235.796 104.824 235.531 104.39 235.531C103.98 235.531 103.642 235.821 103.594 236.182L103.305 238.69H103.281L101.665 238.858C101.352 238.883 101.038 239.148 101.038 239.558C101.038 239.992 101.352 240.257 101.665 240.257ZM117.955 245.127C118.533 245.127 118.919 244.717 118.919 244.187V242.595C118.919 240.16 116.846 238.473 114.7 238.473C112.554 238.473 110.481 240.16 110.481 242.595V246.598C110.481 249.033 112.313 250.793 114.796 250.793C116.05 250.793 117.015 250.383 117.714 249.949C118.099 249.708 118.316 249.467 118.316 249.081C118.316 248.623 117.955 248.237 117.521 248.237C117.256 248.237 117.063 248.334 116.798 248.502C116.339 248.792 115.664 249.153 114.796 249.153C113.422 249.153 112.313 248.093 112.313 246.598V245.127H117.955ZM117.087 243.632H112.313V242.595C112.313 241.149 113.374 240.112 114.7 240.112C116.026 240.112 117.087 241.221 117.087 242.595V243.632ZM128.197 249.78C128.197 250.311 128.559 250.648 129.113 250.648C129.668 250.648 130.03 250.311 130.03 249.78V242.427C130.03 241.004 131.09 240.088 132.199 240.088C133.453 240.088 134.345 241.004 134.345 242.427V249.78C134.345 250.311 134.707 250.648 135.261 250.648C135.816 250.648 136.178 250.311 136.178 249.78V242.427C136.178 240.016 134.683 238.473 132.658 238.473C130.849 238.473 130.054 239.799 129.475 239.799C129.21 239.799 128.969 239.509 128.8 239.365C128.197 238.834 127.667 238.473 126.654 238.473C125.328 238.473 124.532 239.461 124.074 239.461C123.568 239.461 123.448 238.617 122.821 238.617C122.411 238.617 122.049 238.858 122.049 239.316V249.78C122.049 250.311 122.411 250.648 122.965 250.648C123.52 250.648 123.882 250.311 123.882 249.78V242.427C123.882 241.004 124.991 240.088 126.148 240.088C127.281 240.088 128.197 241.052 128.197 242.427V249.78Z" fill="#00AFBA"/>
</g>
<defs>
<clipPath id="clip0_2_153">
<rect width="174.21" height="255.75" fill="white"/>
</clipPath>
</defs>
</svg>
