<svg width="175" height="256" viewBox="0 0 175 256" fill="none" xmlns="http://www.w3.org/2000/svg">
<g clip-path="url(#clip0_2_73)">
<path d="M103.142 75.48C95.1419 93.15 130.842 89.28 132.812 102.87C130.972 87.27 100.552 91.18 103.142 75.48ZM128.722 68.48C126.147 65.8262 123.24 63.517 120.072 61.61C123.782 64.77 125.312 67.88 125.262 71.04C126.422 71.45 127.592 71.88 128.772 72.32C129.352 72.53 129.512 71.95 129.492 71.6C129.432 70.46 129.492 69.25 128.722 68.48V68.48ZM77.1519 139.1C81.2719 147.69 90.6719 151.54 92.6919 151.69C81.9919 143.76 70.0919 118.84 81.6919 81.69C71.5619 101.55 72.3919 129.17 77.1519 139.1ZM114.682 48.39C115.723 45.729 117.156 43.2383 118.932 41C114.348 41.9859 110.239 44.5129 107.292 48.16C93.2319 25.76 42.5619 34.3 42.5619 69.09C43.3219 66.54 47.5619 60.37 52.8319 61.3C52.7119 79.88 28.5619 79.24 25.6519 75.91C33.8019 85.25 40.7319 84.91 46.2619 82.19C39.5619 93.5 27.7219 96.8 17.3419 90.66C18.5864 94.7111 20.8403 98.3793 23.8919 101.32C31.6519 108.65 41.4119 106.73 47.2119 97.78C64.1019 71.71 72.6119 64.33 83.9719 64C50.6719 74 59.5919 147 11.6719 108.77C9.84683 98.8922 8.9529 88.8649 9.00191 78.82V36.92C8.99894 36.0672 9.16536 35.2224 9.49152 34.4344C9.81768 33.6465 10.2971 32.9312 10.9019 32.33C11.5045 31.7316 12.2178 31.2561 13.0019 30.93L87.6619 0L162.322 30.92C163.109 31.2509 163.825 31.7295 164.432 32.33C165.034 32.9328 165.512 33.6485 165.838 34.436C166.164 35.2236 166.332 36.0676 166.332 36.92V78.82C166.332 101.72 162.142 121.82 153.892 139.4C150.102 147.508 145.405 155.16 139.892 162.21C128.412 162.21 73.7519 121.21 99.8919 93.21C104.622 103.3 118.952 96.58 130.192 108.42C135.922 116.42 144.132 113.42 148.992 108.23C152.902 104.08 153.352 97.53 147.482 92.23C141.122 87 137.792 81.83 134.182 73.85C137.182 67.01 128.962 61.58 122.982 57.59C121.652 54.59 121.982 53.31 122.522 51.59C123.7 48.5734 125.322 45.7492 127.332 43.21C122.201 44.3348 117.598 47.1525 114.262 51.21C114.167 50.2497 114.311 49.281 114.682 48.39V48.39Z" fill="white"/>
<path d="M4.59945 218.63H25.7254V216.614H6.78345V204.812H23.6254V202.796H6.78345V191.246H25.5154V189.23H4.59945V218.63ZM32.7362 218.63H34.9202V207.668H42.8582C49.0322 207.668 54.3242 204.518 54.3242 198.302V198.218C54.3242 192.548 49.8722 189.23 43.4042 189.23H32.7362V218.63ZM34.9202 205.652V191.246H43.2362C48.4862 191.246 52.1402 193.682 52.1402 198.344V198.428C52.1402 202.838 48.4442 205.652 42.9842 205.652H34.9202ZM70.4089 219.05C76.7509 219.05 81.2029 215.774 81.2029 209.936V209.852C81.2029 204.728 77.8429 202.628 71.8789 201.032C66.7969 199.688 65.5369 199.142 65.5369 197.168V197.084C65.5369 195.614 66.7969 194.522 69.3169 194.522C71.8369 194.522 74.3149 195.614 76.9609 197.42L80.3209 192.548C77.2969 190.154 73.7269 188.81 69.4009 188.81C63.3529 188.81 59.1109 192.338 59.1109 197.672V197.756C59.1109 203.552 62.8909 205.274 68.8549 206.744C73.7689 207.962 74.7769 208.844 74.7769 210.482V210.566C74.7769 212.288 73.2229 213.338 70.5349 213.338C67.1749 213.338 64.4449 211.952 61.7569 209.768L57.9349 214.346C61.4629 217.538 65.9149 219.05 70.4089 219.05ZM101.096 219.134C110.168 219.134 116.762 212.288 116.762 203.93V203.846C116.762 195.488 110.252 188.726 101.18 188.726C92.1081 188.726 85.5141 195.572 85.5141 203.93V204.014C85.5141 212.372 92.0241 219.134 101.096 219.134ZM101.18 213.17C95.9721 213.17 92.2761 208.97 92.2761 203.93V203.846C92.2761 198.806 95.8881 194.69 101.096 194.69C106.304 194.69 110 198.89 110 203.93V204.014C110 209.054 106.388 213.17 101.18 213.17ZM122.5 218.63H128.968V207.248H142.996V201.368H128.968V195.11H144.886V189.23H122.5V218.63ZM156.908 218.63H163.376V195.194H172.322V189.23H147.962V195.194H156.908V218.63Z" fill="white"/>
<path d="M5.02722 250.648C5.60586 250.648 5.96751 250.311 5.96751 249.78V244.283H8.18563C11.344 244.283 13.4175 242.475 13.4175 239.244C13.4175 236.134 11.3682 234.205 8.18563 234.205H5.02722C4.47269 234.205 4.08693 234.543 4.08693 235.073V249.78C4.08693 250.311 4.44858 250.648 5.02722 250.648ZM11.5369 239.244C11.5369 241.294 10.3555 242.595 8.18563 242.595H5.96751V235.893H8.18563C10.3555 235.893 11.5369 237.195 11.5369 239.244ZM17.9956 242.74C17.9956 241.052 19.1287 240.209 20.3342 240.209H20.6718C21.2022 240.209 21.5639 239.895 21.5639 239.341C21.5639 238.786 21.1781 238.497 20.6718 238.497C19.9726 238.497 19.5868 238.738 18.8394 239.22C18.6224 239.365 18.4054 239.534 18.2367 239.534C18.0197 239.534 17.875 239.341 17.7063 239.148C17.5134 238.907 17.2723 238.617 16.9106 238.617C16.549 238.617 16.1632 238.858 16.1632 239.317V249.78C16.1632 250.311 16.5249 250.648 17.0794 250.648C17.6339 250.648 17.9956 250.311 17.9956 249.78V242.74ZM25.7654 239.485C25.7654 238.955 25.4038 238.617 24.8492 238.617C24.2947 238.617 23.933 238.955 23.933 239.485V249.78C23.933 250.311 24.2947 250.648 24.8492 250.648C25.4038 250.648 25.7654 250.311 25.7654 249.78V239.485ZM23.6678 234.76C23.6678 235.459 24.2465 235.917 24.8492 235.917C25.4761 235.917 26.0306 235.459 26.0306 234.76C26.0306 234.061 25.452 233.602 24.8492 233.602C24.2706 233.602 23.6678 234.061 23.6678 234.76ZM33.1992 250.648C33.7778 250.648 34.0672 250.335 34.2359 249.877L37.756 239.799C37.8042 239.654 37.8283 239.558 37.8283 239.437C37.8283 239.003 37.4184 238.617 36.888 238.617C36.4299 238.617 36.1406 238.858 36.0201 239.244L33.4885 247.056L33.1992 248.02L32.9099 247.056L30.3783 239.244C30.2578 238.858 29.9685 238.617 29.5104 238.617C28.9799 238.617 28.5701 239.003 28.5701 239.437C28.5701 239.558 28.5942 239.654 28.6424 239.799L32.1625 249.877C32.3312 250.335 32.6206 250.648 33.1992 250.648ZM48.1061 242.62C48.1061 240.233 46.1773 238.473 43.911 238.473C42.8502 238.473 41.8134 238.858 41.1625 239.196C40.8008 239.389 40.5115 239.654 40.5115 240.064C40.5115 240.498 40.849 240.884 41.3312 240.884C41.5723 240.884 41.8617 240.739 42.0545 240.643C42.585 240.377 43.1877 240.112 43.911 240.112C45.2853 240.112 46.2738 241.294 46.2738 242.62V243.632H43.9592C41.5723 243.632 39.7159 244.789 39.7159 247.104C39.7159 249.322 41.3553 250.793 43.5252 250.793C44.3691 250.793 44.9236 250.479 45.454 250.166C45.6951 250.021 45.888 249.877 46.1291 249.877C46.3461 249.877 46.4426 250.021 46.6113 250.214C46.8042 250.455 47.0453 250.696 47.3587 250.696C47.7927 250.696 48.1061 250.455 48.1061 249.997V242.62ZM43.9592 245.127H46.2738V247.032C46.2738 248.382 45.2129 249.153 43.8869 249.153C42.5367 249.153 41.5241 248.43 41.5241 247.104C41.5241 245.802 42.5608 245.127 43.9592 245.127ZM53.2097 242.716C53.2097 241.125 54.3911 240.112 55.6931 240.112C56.344 240.112 56.8503 240.353 57.3325 240.643C57.5013 240.739 57.6942 240.835 57.9112 240.835C58.3452 240.835 58.7068 240.474 58.7068 240.04C58.7068 239.654 58.5139 239.437 58.1764 239.22C57.5254 238.81 56.7539 238.473 55.6931 238.473C53.4508 238.473 51.3774 240.064 51.3774 242.716V246.55C51.3774 249.202 53.4508 250.793 55.6931 250.793C56.7539 250.793 57.5495 250.455 58.1764 250.045C58.5139 249.828 58.7068 249.611 58.7068 249.226C58.7068 248.792 58.3452 248.43 57.9112 248.43C57.6942 248.43 57.5013 248.527 57.3325 248.623C56.8503 248.888 56.3199 249.153 55.6931 249.153C54.3911 249.153 53.2097 248.141 53.2097 246.55V242.716ZM61.9453 253.469C61.5354 253.541 61.2461 253.879 61.2461 254.337C61.2461 254.843 61.5836 255.181 62.1382 255.181C63.4401 255.181 64.6215 253.951 65.2001 252.288L69.6123 239.823C69.6605 239.678 69.6846 239.558 69.6846 239.437C69.6846 239.027 69.2747 238.617 68.7443 238.617C68.2862 238.617 67.9969 238.858 67.8763 239.244L65.3448 247.08L65.0555 248.044L64.7662 247.08L62.2346 239.244C62.1141 238.858 61.8247 238.617 61.3666 238.617C60.8362 238.617 60.4264 239.027 60.4264 239.437C60.4264 239.558 60.4505 239.678 60.4987 239.823L64.1152 250.118L63.4401 251.902C63.1267 252.722 62.548 253.349 61.9453 253.469ZM81.7298 250.793C83.3452 250.793 84.6953 250.045 85.708 248.912C86.5277 249.828 87.0822 250.407 87.0822 250.407C87.2992 250.624 87.4921 250.769 87.7814 250.769C88.2877 250.769 88.6253 250.407 88.6253 249.997C88.6253 249.756 88.5529 249.563 88.4083 249.395C88.4083 249.395 87.6609 248.575 86.7206 247.49C87.3715 246.26 87.7332 244.814 87.7332 243.415C87.7332 242.909 87.3233 242.62 86.8893 242.62C86.4313 242.62 86.0455 242.909 86.0455 243.415C86.0455 244.404 85.8526 245.32 85.5392 246.14C84.5266 244.958 83.4416 243.68 82.7183 242.74C80.5725 240.016 79.8251 239.075 79.8251 237.798C79.8251 236.592 80.6449 235.579 81.9227 235.579C82.8148 235.579 83.4175 236.23 83.9238 236.23C84.406 236.23 84.7194 235.869 84.7194 235.459C84.7194 235.121 84.5025 234.88 84.2614 234.712C83.7309 234.35 82.8871 234.012 81.9227 234.012C79.8733 234.012 78.0651 235.579 78.0651 237.798C78.0651 239.341 78.7161 240.45 79.7287 241.752C78.1374 242.837 77.0042 244.066 77.0042 246.164C77.0042 248.744 78.8607 250.793 81.7298 250.793ZM81.2717 243.656C82.3326 245.031 83.5622 246.477 84.623 247.683C83.8756 248.575 82.8871 249.129 81.7298 249.129C79.9939 249.129 78.6919 247.9 78.6919 246.164C78.6919 244.886 79.5117 243.753 80.669 242.909L81.2717 243.656ZM100.339 235.748C101.303 235.748 102.195 236.134 102.726 236.472C102.967 236.616 103.232 236.761 103.521 236.761C103.979 236.761 104.317 236.351 104.317 235.941C104.317 235.555 104.052 235.266 103.738 235.073C102.75 234.47 101.737 234.061 100.339 234.061C97.8795 234.061 95.565 236.086 95.565 238.666C95.565 241.438 98.193 242.475 99.736 243.029C101.159 243.536 102.822 244.211 102.822 246.091C102.822 247.779 101.4 249.057 99.7601 249.057C98.8198 249.057 98.0483 248.719 97.4456 248.406C97.0357 248.189 96.7946 247.996 96.4329 247.996C95.9266 247.996 95.565 248.382 95.565 248.888C95.565 249.322 95.9025 249.636 96.4571 249.925C97.3973 250.407 98.3617 250.745 99.7601 250.745C102.557 250.745 104.679 248.575 104.679 246.091C104.679 243.005 102.364 242.162 100.749 241.535C99.302 240.98 97.4215 240.401 97.4215 238.666C97.4215 237.05 98.7475 235.748 100.339 235.748ZM114.794 245.127C115.373 245.127 115.759 244.717 115.759 244.187V242.595C115.759 240.16 113.685 238.473 111.539 238.473C109.394 238.473 107.32 240.16 107.32 242.595V246.598C107.32 249.033 109.152 250.793 111.636 250.793C112.89 250.793 113.854 250.383 114.553 249.949C114.939 249.708 115.156 249.467 115.156 249.081C115.156 248.623 114.794 248.237 114.36 248.237C114.095 248.237 113.902 248.334 113.637 248.502C113.179 248.792 112.504 249.153 111.636 249.153C110.262 249.153 109.152 248.093 109.152 246.598V245.127H114.794ZM113.926 243.632H109.152V242.595C109.152 241.149 110.213 240.112 111.539 240.112C112.865 240.112 113.926 241.221 113.926 242.595V243.632ZM120.383 242.716C120.383 241.125 121.565 240.112 122.867 240.112C123.518 240.112 124.024 240.353 124.506 240.643C124.675 240.739 124.868 240.835 125.085 240.835C125.519 240.835 125.88 240.474 125.88 240.04C125.88 239.654 125.688 239.437 125.35 239.22C124.699 238.81 123.928 238.473 122.867 238.473C120.625 238.473 118.551 240.064 118.551 242.716V246.55C118.551 249.202 120.625 250.793 122.867 250.793C123.928 250.793 124.723 250.455 125.35 250.045C125.688 249.828 125.88 249.611 125.88 249.226C125.88 248.792 125.519 248.43 125.085 248.43C124.868 248.43 124.675 248.527 124.506 248.623C124.024 248.888 123.494 249.153 122.867 249.153C121.565 249.153 120.383 248.141 120.383 246.55V242.716ZM132.856 249.153C131.409 249.153 130.445 247.996 130.445 246.598V239.485C130.445 238.955 130.083 238.617 129.529 238.617C128.974 238.617 128.613 238.955 128.613 239.485V246.598C128.613 249.033 130.276 250.793 132.253 250.793C133.218 250.793 133.893 250.383 134.399 250.094C134.664 249.925 134.881 249.804 135.074 249.804C135.291 249.804 135.436 249.973 135.605 250.166C135.822 250.407 136.039 250.672 136.376 250.672C136.786 250.672 137.099 250.383 137.099 249.949V239.485C137.099 238.955 136.738 238.617 136.183 238.617C135.629 238.617 135.267 238.955 135.267 239.485V246.598C135.267 248.02 134.303 249.153 132.856 249.153ZM142.737 242.74C142.737 241.052 143.87 240.209 145.075 240.209H145.413C145.943 240.209 146.305 239.895 146.305 239.341C146.305 238.786 145.919 238.497 145.413 238.497C144.714 238.497 144.328 238.738 143.58 239.22C143.363 239.365 143.146 239.534 142.978 239.534C142.761 239.534 142.616 239.341 142.447 239.148C142.254 238.907 142.013 238.617 141.652 238.617C141.29 238.617 140.904 238.858 140.904 239.317V249.78C140.904 250.311 141.266 250.648 141.82 250.648C142.375 250.648 142.737 250.311 142.737 249.78V242.74ZM150.506 239.485C150.506 238.955 150.145 238.617 149.59 238.617C149.036 238.617 148.674 238.955 148.674 239.485V249.78C148.674 250.311 149.036 250.648 149.59 250.648C150.145 250.648 150.506 250.311 150.506 249.78V239.485ZM148.409 234.76C148.409 235.459 148.987 235.917 149.59 235.917C150.217 235.917 150.772 235.459 150.772 234.76C150.772 234.061 150.193 233.602 149.59 233.602C149.012 233.602 148.409 234.061 148.409 234.76ZM153.576 240.257H155.216V247.634C155.216 249.491 156.542 250.793 158.326 250.793C159.266 250.793 160.207 250.479 160.207 249.804C160.207 249.346 159.965 249.009 159.483 249.009C159.146 249.009 158.736 249.202 158.422 249.202C157.675 249.202 157.048 248.575 157.048 247.634V240.257H159.339C159.821 240.257 160.134 239.967 160.134 239.461C160.134 238.979 159.821 238.666 159.339 238.666H157.048V236.206C157.048 235.796 156.735 235.531 156.301 235.531C155.891 235.531 155.553 235.821 155.505 236.182L155.216 238.69H155.192L153.576 238.858C153.263 238.883 152.949 239.148 152.949 239.558C152.949 239.992 153.263 240.257 153.576 240.257ZM163.33 253.469C162.92 253.541 162.631 253.879 162.631 254.337C162.631 254.843 162.968 255.181 163.523 255.181C164.825 255.181 166.006 253.951 166.585 252.288L170.997 239.823C171.045 239.678 171.069 239.558 171.069 239.437C171.069 239.027 170.659 238.617 170.129 238.617C169.671 238.617 169.381 238.858 169.261 239.244L166.729 247.08L166.44 248.044L166.151 247.08L163.619 239.244C163.498 238.858 163.209 238.617 162.751 238.617C162.221 238.617 161.811 239.027 161.811 239.437C161.811 239.558 161.835 239.678 161.883 239.823L165.5 250.118L164.825 251.902C164.511 252.722 163.932 253.349 163.33 253.469Z" fill="white"/>
</g>
<defs>
<clipPath id="clip0_2_73">
<rect width="174.21" height="255.75" fill="white"/>
</clipPath>
</defs>
</svg>
