<svg width="175" height="257" viewBox="0 0 175 257" fill="none" xmlns="http://www.w3.org/2000/svg">
<g clip-path="url(#clip0_2_149)">
<path d="M103.142 75.98C95.1419 93.65 130.842 89.78 132.812 103.37C130.972 87.77 100.552 91.68 103.142 75.98ZM128.722 68.98C126.147 66.3262 123.24 64.017 120.072 62.11C123.782 65.27 125.312 68.38 125.262 71.54C126.422 71.95 127.592 72.38 128.772 72.82C129.352 73.03 129.512 72.45 129.492 72.1C129.432 70.96 129.492 69.75 128.722 68.98ZM77.1519 139.6C81.2719 148.19 90.6719 152.04 92.6919 152.19C81.9919 144.26 70.0919 119.34 81.6919 82.19C71.5619 102.05 72.3919 129.67 77.1519 139.6ZM114.682 48.89C115.723 46.229 117.156 43.7383 118.932 41.5C114.348 42.4859 110.239 45.0129 107.292 48.66C93.2319 26.26 42.5619 34.8 42.5619 69.59C43.3219 67.04 47.5619 60.87 52.8319 61.8C52.7119 80.38 28.5619 79.74 25.6519 76.41C33.8019 85.75 40.7319 85.41 46.2619 82.69C39.5619 94 27.7219 97.3 17.3419 91.16C18.5864 95.2111 20.8403 98.8793 23.8919 101.82C31.6519 109.15 41.4119 107.23 47.2119 98.28C64.1019 72.21 72.6119 64.83 83.9719 64.5C50.6719 74.5 59.5919 147.5 11.6719 109.27C9.84683 99.3922 8.9529 89.3649 9.00191 79.32V37.42C8.99894 36.5672 9.16536 35.7224 9.49152 34.9344C9.81768 34.1465 10.2971 33.4312 10.9019 32.83C11.5045 32.2316 12.2178 31.7561 13.0019 31.43L87.6619 0.5L162.322 31.42C163.109 31.7509 163.825 32.2295 164.432 32.83C165.035 33.4328 165.512 34.1485 165.838 34.936C166.164 35.7236 166.332 36.5676 166.332 37.42V79.32C166.332 102.22 162.142 122.32 153.892 139.9C150.102 148.008 145.405 155.66 139.892 162.71C128.412 162.71 73.7519 121.71 99.8919 93.71C104.622 103.8 118.952 97.08 130.192 108.92C135.922 116.92 144.132 113.92 148.992 108.73C152.902 104.58 153.352 98.03 147.482 92.73C141.122 87.5 137.792 82.33 134.182 74.35C137.182 67.51 128.962 62.08 122.982 58.09C121.652 55.09 121.982 53.81 122.522 52.09C123.7 49.0734 125.322 46.2491 127.332 43.71C122.201 44.8349 117.598 47.6525 114.262 51.71C114.167 50.7497 114.311 49.781 114.682 48.89Z" fill="#00A7E2"/>
<path d="M4.59945 219.13H25.7254V217.114H6.78345V205.312H23.6254V203.296H6.78345V191.746H25.5154V189.73H4.59945V219.13ZM32.7362 219.13H34.9202V208.168H42.8582C49.0322 208.168 54.3242 205.018 54.3242 198.802V198.718C54.3242 193.048 49.8722 189.73 43.4042 189.73H32.7362V219.13ZM34.9202 206.152V191.746H43.2362C48.4862 191.746 52.1402 194.182 52.1402 198.844V198.928C52.1402 203.338 48.4442 206.152 42.9842 206.152H34.9202Z" fill="#00A7E2"/>
<path d="M70.4089 219.55C76.7509 219.55 81.2029 216.274 81.2029 210.436V210.352C81.2029 205.228 77.8429 203.128 71.8789 201.532C66.7969 200.188 65.5369 199.642 65.5369 197.668V197.584C65.5369 196.114 66.7969 195.022 69.3169 195.022C71.8369 195.022 74.3149 196.114 76.9609 197.92L80.3209 193.048C77.2969 190.654 73.7269 189.31 69.4009 189.31C63.3529 189.31 59.1109 192.838 59.1109 198.172V198.256C59.1109 204.052 62.8909 205.774 68.8549 207.244C73.7689 208.462 74.7769 209.344 74.7769 210.982V211.066C74.7769 212.788 73.2229 213.838 70.5349 213.838C67.1749 213.838 64.4449 212.452 61.7569 210.268L57.9349 214.846C61.4629 218.038 65.9149 219.55 70.4089 219.55ZM101.096 219.634C110.168 219.634 116.762 212.788 116.762 204.43V204.346C116.762 195.988 110.252 189.226 101.18 189.226C92.1081 189.226 85.5141 196.072 85.5141 204.43V204.514C85.5141 212.872 92.0241 219.634 101.096 219.634ZM101.18 213.67C95.9721 213.67 92.2761 209.47 92.2761 204.43V204.346C92.2761 199.306 95.8881 195.19 101.096 195.19C106.304 195.19 110 199.39 110 204.43V204.514C110 209.554 106.388 213.67 101.18 213.67ZM122.5 219.13H128.968V207.748H142.996V201.868H128.968V195.61H144.886V189.73H122.5V219.13ZM156.908 219.13H163.376V195.694H172.322V189.73H147.962V195.694H156.908V219.13Z" fill="#003E7B"/>
<path d="M28.7957 239.527C28.7957 236.586 26.7464 234.705 23.8532 234.705H19.9956C19.4652 234.705 19.0553 235.043 19.0553 235.573V250.232C19.0553 250.762 19.4652 251.1 19.9956 251.1H23.8532C26.7464 251.1 28.7957 249.219 28.7957 246.278V239.527ZM20.9359 236.393H23.8532C25.4927 236.393 26.9151 237.574 26.9151 239.527V246.278C26.9151 248.231 25.4927 249.412 23.8532 249.412H20.9359V236.393ZM40.1182 243.12C40.1182 240.733 38.1894 238.973 35.9231 238.973C34.8622 238.973 33.8255 239.358 33.1745 239.696C32.8129 239.889 32.5235 240.154 32.5235 240.564C32.5235 240.998 32.8611 241.384 33.3433 241.384C33.5844 241.384 33.8737 241.239 34.0666 241.143C34.597 240.877 35.1998 240.612 35.9231 240.612C37.2973 240.612 38.2858 241.794 38.2858 243.12V244.132H35.9713C33.5844 244.132 31.7279 245.289 31.7279 247.604C31.7279 249.822 33.3674 251.293 35.5373 251.293C36.3811 251.293 36.9357 250.979 37.4661 250.666C37.7072 250.521 37.9001 250.377 38.1412 250.377C38.3582 250.377 38.4546 250.521 38.6234 250.714C38.8163 250.955 39.0574 251.196 39.3708 251.196C39.8048 251.196 40.1182 250.955 40.1182 250.497V243.12ZM35.9713 245.627H38.2858V247.532C38.2858 248.882 37.225 249.653 35.8989 249.653C34.5488 249.653 33.5362 248.93 33.5362 247.604C33.5362 246.302 34.5729 245.627 35.9713 245.627ZM42.7912 240.757H44.4307V248.134C44.4307 249.991 45.7567 251.293 47.5409 251.293C48.4812 251.293 49.4215 250.979 49.4215 250.304C49.4215 249.846 49.1804 249.509 48.6982 249.509C48.3606 249.509 47.9507 249.702 47.6373 249.702C46.8899 249.702 46.263 249.075 46.263 248.134V240.757H48.5535C49.0357 240.757 49.3491 240.467 49.3491 239.961C49.3491 239.479 49.0357 239.166 48.5535 239.166H46.263V236.706C46.263 236.296 45.9496 236.031 45.5156 236.031C45.1058 236.031 44.7682 236.321 44.72 236.682L44.4307 239.19H44.4066L42.7912 239.358C42.4778 239.383 42.1643 239.648 42.1643 240.058C42.1643 240.492 42.4778 240.757 42.7912 240.757ZM59.7076 243.12C59.7076 240.733 57.7788 238.973 55.5124 238.973C54.4516 238.973 53.4149 239.358 52.7639 239.696C52.4022 239.889 52.1129 240.154 52.1129 240.564C52.1129 240.998 52.4505 241.384 52.9327 241.384C53.1738 241.384 53.4631 241.239 53.656 241.143C54.1864 240.877 54.7891 240.612 55.5124 240.612C56.8867 240.612 57.8752 241.794 57.8752 243.12V244.132H55.5607C53.1738 244.132 51.3173 245.289 51.3173 247.604C51.3173 249.822 52.9568 251.293 55.1267 251.293C55.9705 251.293 56.5251 250.979 57.0555 250.666C57.2966 250.521 57.4895 250.377 57.7306 250.377C57.9475 250.377 58.044 250.521 58.2128 250.714C58.4056 250.955 58.6467 251.196 58.9602 251.196C59.3941 251.196 59.7076 250.955 59.7076 250.497V243.12ZM55.5607 245.627H57.8752V247.532C57.8752 248.882 56.8144 249.653 55.4883 249.653C54.1382 249.653 53.1255 248.93 53.1255 247.604C53.1255 246.302 54.1623 245.627 55.5607 245.627ZM78.6874 239.527C78.6874 236.586 76.6381 234.705 73.7449 234.705H69.8873C69.3568 234.705 68.947 235.043 68.947 235.573V250.232C68.947 250.762 69.3568 251.1 69.8873 251.1H73.7449C76.6381 251.1 78.6874 249.219 78.6874 246.278V239.527ZM70.8276 236.393H73.7449C75.3843 236.393 76.8068 237.574 76.8068 239.527V246.278C76.8068 248.231 75.3843 249.412 73.7449 249.412H70.8276V236.393ZM84.127 239.985C84.127 239.455 83.7654 239.117 83.2109 239.117C82.6563 239.117 82.2947 239.455 82.2947 239.985V250.28C82.2947 250.811 82.6563 251.148 83.2109 251.148C83.7654 251.148 84.127 250.811 84.127 250.28V239.985ZM82.0295 235.26C82.0295 235.959 82.6081 236.417 83.2109 236.417C83.8377 236.417 84.3923 235.959 84.3923 235.26C84.3923 234.561 83.8136 234.102 83.2109 234.102C82.6322 234.102 82.0295 234.561 82.0295 235.26ZM91.3197 240.612C92.0913 240.612 92.5735 240.829 93.1521 241.094C93.3691 241.191 93.5379 241.287 93.7548 241.287C94.2129 241.287 94.5746 240.926 94.5746 240.492C94.5746 240.082 94.3335 239.816 93.9477 239.624C93.2726 239.262 92.3565 238.973 91.3197 238.973C89.2463 238.973 87.4139 240.564 87.4139 242.565C87.4139 244.687 89.4392 245.458 90.717 245.82C91.9948 246.182 93.0798 246.64 93.0798 247.749C93.0798 248.785 92.2359 249.653 90.9581 249.653C90.2589 249.653 89.4874 249.316 89.0775 249.099C88.7882 248.93 88.523 248.834 88.2819 248.834C87.8479 248.834 87.438 249.147 87.438 249.653C87.438 250.087 87.655 250.353 88.1372 250.594C89.0534 251.052 89.8972 251.293 90.9581 251.293C93.2968 251.293 94.888 249.726 94.888 247.7C94.888 245.434 93.128 244.783 91.5849 244.325C90.5482 244.012 89.1981 243.626 89.1981 242.565C89.1981 241.48 90.1866 240.612 91.3197 240.612ZM99.3751 243.216C99.3751 241.625 100.557 240.612 101.858 240.612C102.509 240.612 103.016 240.853 103.498 241.143C103.667 241.239 103.86 241.335 104.077 241.335C104.511 241.335 104.872 240.974 104.872 240.54C104.872 240.154 104.679 239.937 104.342 239.72C103.691 239.31 102.919 238.973 101.858 238.973C99.6162 238.973 97.5428 240.564 97.5428 243.216V247.049C97.5428 249.702 99.6162 251.293 101.858 251.293C102.919 251.293 103.715 250.955 104.342 250.545C104.679 250.328 104.872 250.111 104.872 249.726C104.872 249.292 104.511 248.93 104.077 248.93C103.86 248.93 103.667 249.027 103.498 249.123C103.016 249.388 102.485 249.653 101.858 249.653C100.557 249.653 99.3751 248.641 99.3751 247.049V243.216ZM111.534 238.973C109.316 238.973 107.267 240.636 107.267 243.168V247.098C107.267 249.653 109.316 251.293 111.534 251.293C113.752 251.293 115.802 249.557 115.802 247.098V243.168C115.802 240.709 113.752 238.973 111.534 238.973ZM113.969 247.098C113.969 248.52 112.884 249.653 111.534 249.653C110.184 249.653 109.099 248.568 109.099 247.098V243.168C109.099 241.721 110.184 240.612 111.534 240.612C112.884 240.612 113.969 241.721 113.969 243.168V247.098ZM122.664 251.148C123.242 251.148 123.532 250.835 123.7 250.377L127.22 240.299C127.269 240.154 127.293 240.058 127.293 239.937C127.293 239.503 126.883 239.117 126.353 239.117C125.894 239.117 125.605 239.358 125.485 239.744L122.953 247.556L122.664 248.52L122.374 247.556L119.843 239.744C119.722 239.358 119.433 239.117 118.975 239.117C118.444 239.117 118.035 239.503 118.035 239.937C118.035 240.058 118.059 240.154 118.107 240.299L121.627 250.377C121.796 250.835 122.085 251.148 122.664 251.148ZM136.991 245.627C137.569 245.627 137.955 245.217 137.955 244.687V243.095C137.955 240.66 135.882 238.973 133.736 238.973C131.59 238.973 129.517 240.66 129.517 243.095V247.098C129.517 249.533 131.349 251.293 133.832 251.293C135.086 251.293 136.051 250.883 136.75 250.449C137.136 250.208 137.353 249.967 137.353 249.581C137.353 249.123 136.991 248.737 136.557 248.737C136.292 248.737 136.099 248.834 135.834 249.002C135.375 249.292 134.7 249.653 133.832 249.653C132.458 249.653 131.349 248.593 131.349 247.098V245.627H136.991ZM136.123 244.132H131.349V243.095C131.349 241.649 132.41 240.612 133.736 240.612C135.062 240.612 136.123 241.721 136.123 243.095V244.132ZM142.966 243.24C142.966 241.552 144.099 240.709 145.304 240.709H145.642C146.172 240.709 146.534 240.395 146.534 239.841C146.534 239.286 146.148 238.997 145.642 238.997C144.943 238.997 144.557 239.238 143.81 239.72C143.593 239.865 143.376 240.033 143.207 240.033C142.99 240.033 142.845 239.841 142.676 239.648C142.484 239.407 142.243 239.117 141.881 239.117C141.519 239.117 141.133 239.358 141.133 239.816V250.28C141.133 250.811 141.495 251.148 142.05 251.148C142.604 251.148 142.966 250.811 142.966 250.28V243.24ZM149.361 253.969C148.951 254.041 148.662 254.379 148.662 254.837C148.662 255.343 149 255.681 149.554 255.681C150.856 255.681 152.038 254.451 152.616 252.788L157.028 240.323C157.077 240.178 157.101 240.058 157.101 239.937C157.101 239.527 156.691 239.117 156.16 239.117C155.702 239.117 155.413 239.358 155.292 239.744L152.761 247.58L152.472 248.544L152.182 247.58L149.651 239.744C149.53 239.358 149.241 239.117 148.783 239.117C148.252 239.117 147.842 239.527 147.842 239.937C147.842 240.058 147.867 240.178 147.915 240.323L151.531 250.618L150.856 252.402C150.543 253.222 149.964 253.849 149.361 253.969Z" fill="#00A7E2"/>
</g>
<defs>
<clipPath id="clip0_2_149">
<rect width="174.21" height="255.75" fill="white" transform="translate(0 0.5)"/>
</clipPath>
</defs>
</svg>
